<?xml version="1.0" encoding="utf-8"?>
<!-- Generator: Adobe Illustrator 24.3.0, SVG Export Plug-In . SVG Version: 6.00 Build 0)  -->
<svg version="1.1" id="Layer_1" xmlns="http://www.w3.org/2000/svg" xmlns:xlink="http://www.w3.org/1999/xlink" x="0px" y="0px"
	 viewBox="0 0 322 325" style="enable-background:new 0 0 322 325;" xml:space="preserve">
<path d="M269.86,86.57h-35.3c0,0-3.79-68.5-75.02-72.88c0,0-65.11-1.31-74.29,72.88H48.74c0,0-35.95,5.04-36.05,34.26v125.52
	c0,0-0.51,57.01,62.03,61.05H252.7c0,0,53.8-12.73,53.7-60.56c-0.1-47.83,0-116.69,0-116.69S310.67,94.22,269.86,86.57z
	 M159.54,38.46c48.09-1.61,48.05,48.11,48.05,48.11h-96.33C111.26,86.57,111.46,40.07,159.54,38.46z M281.71,124.68
	c-0.27,3.83-0.48,7.65-0.48,11.49v2.32l-0.16,93.13c-0.01,3.02,0.08,6.03,0.14,9.04c0.92,43.17-37.33,41.72-37.33,41.72
	s-142.56,0-172.39,0c-15.54,0-24.23-9.51-28.99-18.62c-3.66-7.01-5.43-14.84-5.43-22.75V126.34c0.63-13.25,10.83-14.01,14.38-13.87
	c2.27,0.09,4.55,0.1,6.82,0.1h26.98v20.08c0,5.68,2.7,11.1,7.42,14.25c6.62,4.43,11.43,1.01,14.5-3.2
	c2.73-3.76,4.09-8.34,4.09-12.99v-18.29h96.33v19.19c0,5.21,1.97,10.29,5.72,13.91c5.44,5.26,10.49,3.76,14.28,0.74
	c4.44-3.53,6.79-9.08,6.61-14.75l-0.62-19.09l33.83,0.03C280.75,111.83,282.03,120.06,281.71,124.68z"/>
<g>
	<g>
		<path d="M104.68,250.68h-3.76c-4.53,0-8.24-3.71-8.24-8.24v-34.84c0-4.53,3.71-8.24,8.24-8.24h3.76c4.53,0,8.24,3.71,8.24,8.24
			v34.84C112.92,246.98,109.21,250.68,104.68,250.68z"/>
		<rect x="99.19" y="180.71" width="7.23" height="88.12"/>
	</g>
	<g>
		<path d="M145.02,233.11h-2.27c-4.21,0-7.65-3.44-7.65-7.65v-36.54c0-4.21,3.44-7.65,7.65-7.65h2.27c4.21,0,7.65,3.44,7.65,7.65
			v36.54C152.67,229.67,149.23,233.11,145.02,233.11z"/>
		<rect x="140.51" y="160.54" width="6.76" height="88.12"/>
	</g>
	<g>
		<path d="M183.72,250.88h-1.75c-4.53,0-8.24-3.71-8.24-8.24v-35.88c0-4.53,3.71-8.24,8.24-8.24h1.75c4.53,0,8.24,3.71,8.24,8.24
			v35.88C191.95,247.18,188.25,250.88,183.72,250.88z"/>
		<rect x="179.58" y="175.21" width="6.51" height="88.12"/>
	</g>
	<g>
		<path d="M221.16,235.59h-3.07c-4.04,0-7.35-3.31-7.35-7.35v-45.42c0-4.04,3.31-7.35,7.35-7.35h3.07c4.04,0,7.35,3.31,7.35,7.35
			v45.42C228.51,232.28,225.2,235.59,221.16,235.59z"/>
		<rect x="216.42" y="161.46" width="7.11" height="88.12"/>
	</g>
</g>
</svg>
