<?xml version="1.0" encoding="utf-8"?>
<!-- Generator: Adobe Illustrator 24.3.0, SVG Export Plug-In . SVG Version: 6.00 Build 0)  -->
<svg version="1.1" id="Layer_1" xmlns="http://www.w3.org/2000/svg" xmlns:xlink="http://www.w3.org/1999/xlink" x="0px" y="0px"
	 viewBox="0 0 324 325" style="enable-background:new 0 0 324 325;" xml:space="preserve">
<style type="text/css">
	.st0{stroke:#000000;stroke-miterlimit:10;}
</style>
<path class="st0" d="M162.77,13.55c-82.7,0-149.74,67.04-149.74,149.74s67.04,149.74,149.74,149.74S312.51,246,312.51,163.3
	S245.47,13.55,162.77,13.55z M162.77,283.77c-66.54,0-120.47-53.94-120.47-120.47S96.23,42.82,162.77,42.82
	S283.24,96.76,283.24,163.3S229.3,283.77,162.77,283.77z"/>
<circle class="st0" cx="139.57" cy="98.61" r="36.45"/>
<path class="st0" d="M233.01,138.66c-50.27-27.48-79.62,15.61-79.62,15.61c-16.12-3.82-29.37-0.24-32.43,0.72
	c-0.63,0.2-1.25,0.38-1.88,0.56c-26.68,7.8-40.39,29.35-45.31,52.11c-4.01,18.57,6.69,20,11.05,19.84c2.55-0.09,5.11-0.17,7.66-0.17
	h60.91c31.69,37.92,71.34,18.65,78.49,14.7c0.73-0.4,1.47-0.78,2.2-1.18C261.71,225.77,282.58,165.75,233.01,138.66z M201.24,231.86
	c-23.84,0-43.17-19.33-43.17-43.17c0-23.84,19.33-43.17,43.17-43.17s43.17,19.33,43.17,43.17
	C244.41,212.53,225.08,231.86,201.24,231.86z"/>
<g>
	<path class="st0" d="M227.19,188.3v4.16c0,3.74-3.03,6.77-6.77,6.77h-10.51v9.99c0,3.68-2.98,6.66-6.66,6.66h-3.54
		c-3.68,0-6.66-2.98-6.66-6.66v-9.99h-10.25c-3.73,0-6.76-3.03-6.76-6.77v-4.16c0-3.73,3.03-6.77,6.76-6.77h10.25v-10.62
		c0-3.68,2.98-6.66,6.66-6.66h3.54c3.68,0,6.66,2.98,6.66,6.66v10.62h10.51C224.16,181.54,227.19,184.57,227.19,188.3z"/>
</g>
</svg>
