<?xml version="1.0" encoding="utf-8"?>
<!-- Generator: Adobe Illustrator 24.3.0, SVG Export Plug-In . SVG Version: 6.00 Build 0)  -->
<svg version="1.1" id="Layer_1" xmlns="http://www.w3.org/2000/svg" xmlns:xlink="http://www.w3.org/1999/xlink" x="0px" y="0px"
	 viewBox="0 0 324.5 325" style="enable-background:new 0 0 324.5 325;" xml:space="preserve">
<path d="M131.5,11.95c-66.68,0-120.73,54.05-120.73,120.73S64.82,253.41,131.5,253.41s120.73-54.05,120.73-120.73
	S198.17,11.95,131.5,11.95z M131.5,232.14c-54.26,0-98.24-43.98-98.24-98.24s43.98-98.24,98.24-98.24s98.24,43.98,98.24,98.24
	S185.76,232.14,131.5,232.14z"/>
<path d="M58,155.12h41.57v58.79c0,0-18.64-6.21-35.58-27.2c-3.92-4.85-5.99-10.93-5.99-17.17V155.12z"/>
<path d="M110.94,67.75v150.05c0,0,29.56,6.17,41.57,0V67.75H110.94z"/>
<path d="M165.18,123.29v90.62c0,0,9.72-4.86,19.87-12.21c13.7-9.92,21.7-25.91,21.7-42.82l0-35.59H165.18z"/>
<path d="M245.08,203.84c0,0-14.94,26.96-41.9,43.85l46.12,52.94c0,0,12.99,14.29,25.66,15.27c12.67,0.97,28.26-4.87,34.75-19.16
	c5.05-11.12,4.21-23.36-1.91-34.31c-2.48-4.44-5.79-8.36-9.61-11.73L245.08,203.84z"/>
</svg>
