<?xml version="1.0" encoding="utf-8"?>
<!-- Generator: Adobe Illustrator 24.3.0, SVG Export Plug-In . SVG Version: 6.00 Build 0)  -->
<svg version="1.1" id="Layer_1" xmlns="http://www.w3.org/2000/svg" xmlns:xlink="http://www.w3.org/1999/xlink" x="0px" y="0px"
	 viewBox="0 0 302.81 325" style="enable-background:new 0 0 302.81 325;" xml:space="preserve">
<path d="M37.55,158.36c-1.88,1.87-3.3,4.17-3.97,6.74c-0.75,2.87-0.75,6.44,2.26,9.26c0.19,0.18,0.38,0.34,0.57,0.5
	c4.69,3.93,11.68,3.41,16.02-0.91L161.69,65.34c4.9-4.87,9.69-9.84,14.47-14.82c6-6.26,21.87-19.46,47.28-17.15
	c29.98,2.73,40.21,32.32,41.86,37.84c0.16,0.52,0.32,1.04,0.49,1.56c1.45,4.41,8.24,29.74-17.39,54.11
	c-3.95,3.76-7.91,7.51-11.76,11.37L112.31,262.89c-4.73,4.75-9.38,9.58-14.03,14.42c-5.12,5.33-17.51,15.87-34.15,14.35
	c-13.35-1.22-24.79-10.14-29.66-22.63c-4.2-10.78-4.54-26.03,12.63-42.41l121.1-121.83c4.03-4.06,9.38-6.63,15.09-6.96
	c4.55-0.26,9.61,0.84,13.44,5.47c0,0,13.91,13.16-1.5,27.82l-90.98,91.36c0,0-10.53,9.78-1.5,17.29c6.45,5.37,11.93,1.34,14.54-1.4
	c2.78-2.92,5.53-5.86,8.39-8.7l80.24-79.57c1.75-1.73,3.53-3.43,5.3-5.13c3.69-3.53,13.74-14.84,11.96-32.21
	c-1.39-13.62-9.48-25.8-21.74-31.87c-8.93-4.42-21.38-6.39-36.51,2.01c-4.81,2.67-9.16,6.09-13.05,9.98L27.94,216.83
	c0,0-23.73,24.79-13.12,57.14c4.44,13.52,13.9,24.9,26.31,31.87c16.62,9.33,44.57,15.43,75.16-18.7l151.39-151.89
	c0,0,47.5-48.66-2.13-102.16c0,0-49.11-52.37-111.78,9.67L37.55,158.36z"/>
</svg>
