<?xml version="1.0" encoding="utf-8"?>
<!-- Generator: Adobe Illustrator 24.3.0, SVG Export Plug-In . SVG Version: 6.00 Build 0)  -->
<svg version="1.1" id="Layer_1" xmlns="http://www.w3.org/2000/svg" xmlns:xlink="http://www.w3.org/1999/xlink" x="0px" y="0px"
	 viewBox="0 0 324.77 325" style="enable-background:new 0 0 324.77 325;" xml:space="preserve">
<path d="M12.23,162.5c0,82.7,67.04,149.74,149.74,149.74S311.71,245.2,311.71,162.5S244.67,12.76,161.97,12.76
	S12.23,79.8,12.23,162.5z M40.12,162.5c0-67.29,54.55-121.85,121.85-121.85c67.29,0,121.85,54.55,121.85,121.85
	c0,67.29-54.55,121.85-121.85,121.85S40.12,229.8,40.12,162.5z"/>
<polygon points="86.34,161.01 145.48,101.87 189.24,101.87 145.48,145.63 243.52,145.63 243.52,179.97 145.48,179.97 187.58,224.28 
	145.48,224.28 "/>
</svg>
