<?xml version="1.0" encoding="utf-8"?>
<!-- Generator: Adobe Illustrator 24.3.0, SVG Export Plug-In . SVG Version: 6.00 Build 0)  -->
<svg version="1.1" id="Layer_1" xmlns="http://www.w3.org/2000/svg" xmlns:xlink="http://www.w3.org/1999/xlink" x="0px" y="0px"
	 viewBox="0 0 246.64 325" style="enable-background:new 0 0 246.64 325;" xml:space="preserve">
<path d="M72.77,61.36v19.93H33.67v185.5l58.26-48.29c0,0,11.99-9.78,26.53-3.42c2.64,1.16,5.05,2.79,7.21,4.71l52.88,47v-93.52
	h25.68V299.2c0,2.13-0.24,4.25-0.81,6.3c-1.27,4.59-4.45,10.36-12.28,5.81c-1.02-0.59-1.96-1.31-2.86-2.08l-80.26-69.66
	l-81.64,69.76c0,0-8.52,7.9-12.96-0.66c-0.98-1.88-1.42-4-1.42-6.12V82.13c0-2.85-0.12-5.69-0.28-8.53
	c-0.23-4.19,0.67-12.52,11.59-12.23C37.89,61.75,72.77,61.36,72.77,61.36z"/>
<path d="M163.8,13c-39.48,0-71.48,32-71.48,71.48s32,71.48,71.48,71.48s71.48-32,71.48-71.48S203.27,13,163.8,13z M213.4,88.53
	c0,7.11-5.76,12.87-12.87,12.87h-19.99v19c0,6.99-5.67,12.67-12.67,12.67h-6.74c-6.99,0-12.67-5.67-12.67-12.67v-19h-19.5
	c-7.1,0-12.86-5.76-12.86-12.87v-7.92c0-7.1,5.76-12.87,12.86-12.87h19.5V47.55c0-6.99,5.67-12.67,12.67-12.67h6.74
	c6.99,0,12.67,5.67,12.67,12.67v20.19h19.99c7.11,0,12.87,5.77,12.87,12.87V88.53z"/>
</svg>
