<?xml version="1.0" encoding="utf-8"?>
<!-- Generator: Adobe Illustrator 24.3.0, SVG Export Plug-In . SVG Version: 6.00 Build 0)  -->
<svg version="1.1" id="Layer_1" xmlns="http://www.w3.org/2000/svg" xmlns:xlink="http://www.w3.org/1999/xlink" x="0px" y="0px"
	 viewBox="0 0 320 325" style="enable-background:new 0 0 320 325;" xml:space="preserve">
<path d="M298.3,258.22c-6.5,0.2-13,0.5-19.5,0.5H84.1c-1.5,0-3-0.3-4.4-1c-2.1-1.1-3.8-3.1,0.3-6.7c6.9-6,30-21.4,30-21.4l163.1-0.8
	c1.7,0,3.3,0,5,0c4.8,0,23.9-1.2,24.6-21.4c0.7-18.6,0.3-70.6,0.1-90.1c0-3.6,0.1-7.2,0.4-10.8c0.4-5.6-0.8-16.7-15.1-19.5
	c-2.2-0.4-4.4-0.4-6.5,0.3c-2.9,1-6.2,3.4-5.2,9.2c0.8,4.6,4,8.4,8.3,10.2l0.9,0.4v101.1H114.3L83.5,75.42l12,2
	c3.3,0.6,6.8,0,9.6-1.8c2.2-1.3,4-3.3,4-6.2c0-2.9-1.5-5.1-3.2-6.8c-2.2-2.1-5-3.4-8-4l-20.5-3.8l-7.1-30.1
	c-0.6-2.5-1.5-4.9-2.8-7.1c-1.4-2.4-3.4-4.7-5.6-4.7c-3.3,0-27.7,0.3-38.5,0.1c-4.6-0.1-8.9,2.2-11.2,6.2c-1.5,2.6-1.9,5.8,1,8.9
	c2.2,2.4,5.4,3.7,8.7,3.7h29.5l44,184l-15.2,11.5c-3.7,2.7-7.4,5.3-11.2,7.9c-3.7,2.6-10.1,9-9.5,22.6c0.9,18.8,24.8,19.7,24.8,19.7
	H107c0,0-5.6,21.4,10.5,33c9.5,6.9,22.4,7.6,32.6,1.8c8.4-4.8,16.2-14.7,12.2-34.8H218c0,0-9,25,15.1,36c8.2,3.8,17.7,4.1,25.9,0.2
	c8.9-4.2,17.9-13.9,14.7-36.2h24c0,0,8.6,0,8.6-11.1C306.2,259.32,301.6,258.12,298.3,258.22z M135.8,302.42
	c-5.7,0-10.3-4.6-10.3-10.3c0-5.7,4.6-10.3,10.3-10.3s10.3,4.6,10.3,10.3C146,297.82,141.4,302.42,135.8,302.42z M243.7,302.42
	c-5.7,0-10.3-4.6-10.3-10.3c0-5.7,4.6-10.3,10.3-10.3s10.3,4.6,10.3,10.3C254,297.82,249.4,302.42,243.7,302.42z"/>
<polygon points="169.85,65.08 208.22,65.08 208.22,111.36 244.19,111.36 189.03,170.26 133.89,111.36 169.85,111.36 "/>
</svg>
