<?xml version="1.0" encoding="utf-8"?>
<!-- Generator: Adobe Illustrator 24.3.0, SVG Export Plug-In . SVG Version: 6.00 Build 0)  -->
<svg version="1.1" id="Layer_1" xmlns="http://www.w3.org/2000/svg" xmlns:xlink="http://www.w3.org/1999/xlink" x="0px" y="0px"
	 viewBox="0 0 297.7 325" style="enable-background:new 0 0 297.7 325;" xml:space="preserve">
<polygon points="62.66,163.8 62.66,204.69 77.42,204.69 77.42,178.87 103.55,178.87 103.55,163.8 "/>
<polygon points="129.58,164.73 129.58,205.61 144.34,205.61 144.34,179.79 170.47,179.79 170.47,164.73 "/>
<polygon points="197.93,163.8 197.93,204.69 212.69,204.69 212.69,178.87 238.82,178.87 238.82,163.8 "/>
<polygon points="62.66,223.44 62.66,264.33 77.42,264.33 77.42,238.51 103.55,238.51 103.55,223.44 "/>
<polygon points="129.58,223.44 129.58,264.33 144.34,264.33 144.34,238.51 170.47,238.51 170.47,223.44 "/>
<polygon points="197.93,223.44 197.93,264.33 212.69,264.33 212.69,238.51 238.82,238.51 238.82,223.44 "/>
<path d="M287.85,239.02V57.74H12.09v203.82c2.56,47.09,24.76,50.84,33.91,50.35c4.86-0.26,9.72-0.45,14.58-0.37
	c35.96,0.56,152.44,2.15,188.54-0.17c36.86-2.38,38.97-45.96,38.84-58.18C287.9,248.47,287.85,243.75,287.85,239.02z M208.22,63.36
	c16.39-1.29,29.96,12.28,28.67,28.67c-1.02,12.89-11.46,23.33-24.35,24.35c-16.39,1.29-29.96-12.28-28.66-28.66
	C184.89,74.82,195.33,64.38,208.22,63.36z M94.17,64.9c16.39-1.29,29.96,12.28,28.66,28.67c-1.02,12.89-11.46,23.33-24.35,24.35
	c-16.39,1.29-29.96-12.28-28.67-28.67C70.83,76.36,81.28,65.91,94.17,64.9z M235.1,297.89c-3.93-0.15-7.85-0.34-11.78-0.34
	l-170.18,0.37c0,0-27.21,0.53-26.75-38.2l1.84-124.97h243.94v121.74C272.17,256.49,273.46,299.37,235.1,297.89z"/>
<path d="M111.23,24.85c0,0-11.07-9.84-3.69,66.56H88.49c0,0-12.3-81.93,7.84-76.7S111.23,24.85,111.23,24.85z"/>
<path d="M224.4,24.85c0,0-11.07-9.84-3.69,66.56h-19.06c0,0-12.3-81.93,7.84-76.7S224.4,24.85,224.4,24.85z"/>
</svg>
