<?xml version="1.0" encoding="utf-8"?>
<!-- Generator: Adobe Illustrator 24.3.0, SVG Export Plug-In . SVG Version: 6.00 Build 0)  -->
<svg version="1.1" id="Layer_1" xmlns="http://www.w3.org/2000/svg" xmlns:xlink="http://www.w3.org/1999/xlink" x="0px" y="0px"
	 viewBox="0 0 376 281.87" style="enable-background:new 0 0 376 281.87;" xml:space="preserve">
<path d="M361.68,238.69c0,0,0-146.17,0-166.3c0-20.13-23.63-19.91-23.63-19.91l-61.05,0l-41.8-41.79l-89.72,0l-42.01,41.58h-8.75
	l0-14.44H58.83l0,14.44L38.7,52.69C20.01,54.1,18.37,71.13,18.43,77.7c0.03,3.17,0.07,6.33,0.02,9.5
	c-0.42,26.31-1.76,120.08,0.12,151.93c1.75,29.76,22.55,32.07,30.8,31.8c4.55-0.15,9.09-0.29,13.64-0.29h268.92
	C363.43,270.63,361.68,238.69,361.68,238.69z M319.87,244.37l-261.67,0c-6.18,0-11.19-5.01-11.19-11.19l0-141.12
	c0-5.31,4.31-9.62,9.62-9.61l60.95,0.09l41.03-41.03h65.43l40.92,40.92l58.89,0c5.42,0,9.82,4.4,9.82,9.82l0,138.31
	C333.67,238.2,327.49,244.37,319.87,244.37z"/>
<path d="M190.35,73.87c-41.81,0-75.71,33.6-75.71,75.06c0,41.45,33.9,75.06,75.71,75.06s75.71-33.6,75.71-75.06
	C266.07,107.48,232.17,73.87,190.35,73.87z M190.35,207.44c-32.6,0-59.02-26.19-59.02-58.51c0-32.31,26.42-58.51,59.02-58.51
	s59.02,26.19,59.02,58.51C249.37,181.24,222.95,207.44,190.35,207.44z"/>
<path d="M175.51,149.07c-1.49-0.09-2.98,0.04-4.41,0.46c-4.81,1.44-13.57,6.11-6.56,20.33c9.34,18.96,34.72,18.97,46.1,9.92
	c11.38-9.05,18.09-23.68,14.3-38.98s-13.42-23.17-21.88-20.84c-8.46,2.33-10.18,9.85-10.8,20.84
	C191.78,149.25,179.92,149.33,175.51,149.07z"/>
<g>
	<g>
		<path d="M699.82-203.27c1.93,0,1.93-3,0-3C697.89-206.27,697.89-203.27,699.82-203.27L699.82-203.27z"/>
	</g>
</g>
<g>
	<g>
		<path d="M699.82-203.27c1.93,0,1.93-3,0-3C697.89-206.27,697.89-203.27,699.82-203.27L699.82-203.27z"/>
	</g>
</g>
</svg>
