<?xml version="1.0" encoding="utf-8"?>
<!-- Generator: Adobe Illustrator 24.3.0, SVG Export Plug-In . SVG Version: 6.00 Build 0)  -->
<svg version="1.1" id="Layer_1" xmlns="http://www.w3.org/2000/svg" xmlns:xlink="http://www.w3.org/1999/xlink" x="0px" y="0px"
	 viewBox="0 0 376 265" style="enable-background:new 0 0 376 265;" xml:space="preserve">
<style type="text/css">
	.st0{stroke:#000000;stroke-miterlimit:10;}
</style>
<path class="st0" d="M317.87,14.71H60.01c-24.12,0-43.85,19.73-43.85,43.85v145.74c0,24.12,19.73,43.85,43.85,43.85h257.86
	c24.12,0,43.85-19.73,43.85-43.85V58.57C361.72,34.45,341.99,14.71,317.87,14.71z M38.83,61.03c0-3.95,0.92-7.88,2.91-11.31
	c5.25-9.07,13.97-9.76,17.76-9.58c2.2,0.1,4.4,0.19,6.61,0.19h252.64c3.11,0,6.21,0.52,9.08,1.71c9.65,3.99,10.3,11.75,10.2,14.56
	c-0.04,1.23-0.09,2.46-0.09,3.68v13.63H38.83V61.03z M321.83,224.23c-18.29,2.39-237.88,0.25-261.07,0.02
	c-0.99-0.01-1.96,0.03-2.95,0.08c-2.89,0.14-11.57-0.5-16.49-12.39c-1.72-4.15-2.49-8.64-2.49-13.13v-91.85h299.2v80.41
	c0,4.97,0.01,9.95,0.17,14.91C338.38,207.93,337.28,222.22,321.83,224.23z"/>
<path class="st0" d="M126.28,203.24H72.31c-5.02,0-9.12-4.11-9.12-9.12v-1.07c0-5.02,4.11-9.12,9.12-9.12h53.97
	c5.02,0,9.12,4.11,9.12,9.12v1.07C135.41,199.13,131.3,203.24,126.28,203.24z"/>
<path class="st0" d="M293.56,203.24h-26.6c-8.16,0-14.83-6.68-14.83-14.83v-26.6c0-8.16,6.68-14.83,14.83-14.83h26.6
	c8.16,0,14.83,6.68,14.83,14.83v26.6C308.4,196.56,301.72,203.24,293.56,203.24z"/>
</svg>
