<?xml version="1.0" encoding="utf-8"?>
<!-- Generator: Adobe Illustrator 24.3.0, SVG Export Plug-In . SVG Version: 6.00 Build 0)  -->
<svg version="1.1" id="Layer_1" xmlns="http://www.w3.org/2000/svg" xmlns:xlink="http://www.w3.org/1999/xlink" x="0px" y="0px"
	 viewBox="0 0 333.96 325" style="enable-background:new 0 0 333.96 325;" xml:space="preserve">
<path d="M217.33,199.81C200.26,152.96,143.18,117,143.18,117s-55.81-33.05-67.06,0L15.49,298.24l0,0c0,0-6.9,13.08,9.44,11.62
	c14.76-1.31,150.1-49.76,176.1-59.1c2.09-0.75,4.23-1.39,6.38-1.96C213.75,247.13,231.54,238.86,217.33,199.81z M39.82,284.8
	l14.52-34.5l0,0c9.8,17.06,40.27,23.96,40.29,23.97l0,0C65.62,289.88,39.86,284.81,39.82,284.8L39.82,284.8z M136.38,257.93
	c-30.49,7.62-73.66-32.67-73.69-32.69l0,0l15.57-44.55c0.01-0.05,0.08-0.05,0.1-0.01c22.93,45.32,95.78,63.45,95.78,63.45
	S166.87,250.3,136.38,257.93z M197.54,227.57c-18.54-5.79-88.07-32.11-100.01-104.39c0,0,82.64,18.22,103.47,101.11
	C201.53,226.36,199.58,228.2,197.54,227.57z"/>
<polygon points="93.07,66.73 83.74,71.82 95.19,75.26 97.31,85.4 102.45,76.07 113.06,76.49 106.22,67.58 110.04,58.67 
	101.13,63.76 92.65,54.85 "/>
<polygon points="246.07,227.44 238.16,235.73 251.04,235.5 256.54,245.22 258.75,233.95 269.78,230.9 259.84,224 260.84,213.6 
	253.36,221.75 241.74,215.39 "/>
<polygon points="142.45,38.73 121.32,39.9 138.98,55.87 134.12,75.94 151.33,63.54 170.06,73.39 165.37,51.51 179.86,38.75 
	159.48,40.28 151.85,17 "/>
<polygon points="285.44,156.34 264.79,154.63 279.76,172.5 272.34,191.3 290.71,181.6 307.53,193.67 305.94,171.82 321.7,161.4 
	301.74,160.15 297.48,136.53 "/>
<path d="M190.84,78.09l-12.8,25.85c-2.49,5.03-0.47,11.14,4.54,13.69l0.22,0.11c5.11,2.59,11.35,0.49,13.85-4.67l12.58-25.95
	c2.42-4.99,0.42-11.01-4.5-13.57l0,0C199.64,70.9,193.38,72.95,190.84,78.09z"/>
<path d="M230.71,175.44L230.71,175.44c0,3.2,2.59,5.79,5.78,5.79H251c3.19,0,5.78-2.59,5.78-5.79l0,0c0-3.2-2.59-5.79-5.78-5.79
	h-14.51C233.29,169.65,230.71,172.24,230.71,175.44z"/>
<path d="M269.18,109.78c-14.31,1.74-39.7,7.31-55.93,25.25c-4.05,4.47-2.79,11.57,2.56,14.35l0.42,0.22
	c3.45,1.79,7.67,1.22,10.5-1.45c7.15-6.75,22.68-18.68,44.17-20.08c4.68-0.31,8.37-4.09,8.57-8.77l0,0
	C279.72,113.61,274.81,109.09,269.18,109.78z"/>
</svg>
