<?xml version="1.0" encoding="utf-8"?>
<!-- Generator: Adobe Illustrator 24.3.0, SVG Export Plug-In . SVG Version: 6.00 Build 0)  -->
<svg version="1.1" id="Layer_1" xmlns="http://www.w3.org/2000/svg" xmlns:xlink="http://www.w3.org/1999/xlink" x="0px" y="0px"
	 viewBox="0 0 324.77 325" style="enable-background:new 0 0 324.77 325;" xml:space="preserve">
<path d="M310.32,181.17c-0.03-2.36-0.05-4.72-0.05-7.08V79.6c0-6.82-1.06-13.62-3.34-20.05c-13.31-37.37-55.89-39.03-55.89-39.03
	l-165.98,0c-5.95,0-11.89,0.54-17.7,1.8C17.5,33.12,16.17,81.82,16.17,81.82l0,95.04c0,7.55,1.07,15.08,3.4,22.27
	c13.17,40.71,53.26,42.36,53.26,42.36l86.53,1.55l69.02,58.72c20.09,10.3,22.66-11.85,22.66-11.85l-0.52-47.9
	C308.23,237.34,310.43,190.22,310.32,181.17z M240.81,218.79c-2.17-0.09-11.79,0.46-14.78,16.81c-0.56,3.06-0.76,6.17-0.69,9.27
	l0.46,22.37l-55.11-47.38l-95.8-2.06c0,0-30.9,1.03-33.48-36.57c-2.58-37.6,0-94.77,0-94.77s0-41.72,45.32-40.69
	c39.79,0.9,129.6,0.21,150.93,0.02c2.03-0.02,4.06-0.05,6.1-0.14c7.61-0.31,41.95,0.52,43.32,40.8v90.65c0,0,0.51,42.12-44.82,41.73
	C241.78,218.83,241.29,218.81,240.81,218.79z"/>
<path d="M247.23,111.31H135.98c-7.55,0-13.73-6.18-13.73-13.73v0c0-7.55,6.18-13.73,13.73-13.73h111.25
	c7.55,0,13.73,6.18,13.73,13.73v0C260.97,105.13,254.79,111.31,247.23,111.31z"/>
<path d="M237.91,177.24h-88.48c-8.15,0-14.82-6.67-14.82-14.82v0c0-8.15,6.67-14.82,14.82-14.82h88.48
	c8.15,0,14.82,6.67,14.82,14.82v0C252.73,170.57,246.06,177.24,237.91,177.24z"/>
</svg>
