<?xml version="1.0" encoding="utf-8"?>
<!-- Generator: Adobe Illustrator 24.3.0, SVG Export Plug-In . SVG Version: 6.00 Build 0)  -->
<svg version="1.1" id="Layer_1" xmlns="http://www.w3.org/2000/svg" xmlns:xlink="http://www.w3.org/1999/xlink" x="0px" y="0px"
	 viewBox="0 0 363.06 325" style="enable-background:new 0 0 363.06 325;" xml:space="preserve">
<path d="M330.75,18.91c-9-5.29-19.31-7.91-29.75-7.93c-40.62-0.09-216.28-0.46-245.9,0.02c-13.98,0.23-24.1,7.4-31.16,15.7
	C14.9,37.31,10.19,50.93,10.19,64.87v131.86c0,7.78,1.38,15.53,4.38,22.7c11.87,28.39,39.44,27.99,39.44,27.99l38.41,1.62
	l21.16,51.89c1.44,3.54,3.6,6.77,6.46,9.32c12.59,11.25,19.45-5.49,19.45-5.49l25.43-56.81h137.42
	c24.38-1.12,36.85-12.69,43.22-23.58c4.4-7.53,6.56-16.15,6.56-24.87V54.82C352.12,36.15,341.44,25.2,330.75,18.91z M318.04,192.04
	c0,12.66-10.26,22.92-22.92,22.92H170.76c-9.13,0-17.39,5.42-21.02,13.79l-17.58,40.5c-0.54,1.23-2.26,1.3-2.89,0.12l-22.26-41.74
	c-3.98-7.47-11.76-12.13-20.22-12.13H67.73c-12.66,0-22.92-10.26-22.92-22.92V62.04c0-12.66,10.26-22.92,22.92-22.92h227.39
	c12.66,0,22.92,10.26,22.92,22.92V192.04z"/>
<path d="M276.39,112.71H105.94c-1.48,0-2.69-1.21-2.69-2.69V86.18c0-1.48,1.21-2.69,2.69-2.69h170.45c1.48,0,2.69,1.21,2.69,2.69
	v23.83C279.08,111.5,277.87,112.71,276.39,112.71z"/>
<path d="M276.84,169.52H105.49c-1.23,0-2.24-1.01-2.24-2.24v-19.86c0-1.23,1.01-2.24,2.24-2.24h171.35c1.23,0,2.24,1.01,2.24,2.24
	v19.86C279.08,168.51,278.07,169.52,276.84,169.52z"/>
</svg>
