<?xml version="1.0" encoding="utf-8"?>
<!-- Generator: Adobe Illustrator 24.3.0, SVG Export Plug-In . SVG Version: 6.00 Build 0)  -->
<svg version="1.1" id="Layer_1" xmlns="http://www.w3.org/2000/svg" xmlns:xlink="http://www.w3.org/1999/xlink" x="0px" y="0px"
	 viewBox="0 0 323.74 325" style="enable-background:new 0 0 323.74 325;" xml:space="preserve">
<style type="text/css">
	.st0{stroke:#000000;stroke-miterlimit:10;}
</style>
<g>
	<path class="st0" d="M177.96,95.77l-26.45,22.25l-86.86,0c-1.4,0-2.8-0.04-4.2-0.09c-4.58-0.15-20.63,0.93-20.63,23.6l0,107.03
		c0,4.56-0.11,9.12-0.26,13.68c-0.23,6.91,1.26,22.8,20,22.47l155.78,0.01c0,0,21.51,1.13,20.53-22c-0.3-7.16-0.33-14.32-0.3-21.48
		l0.33-79.97c0,0,19.2-13.86,21.36-29.39l0,130.17c0,0,1.74,31.34-26.58,41.49c-4.96,1.78-10.21,2.6-15.48,2.6l-159.46,0
		c-7.24,0-14.38-2-20.43-5.98c-7.08-4.66-14.4-12.92-17.16-27.53c-0.7-3.68-1-7.42-1-11.17l0-118.58c0-1.48-0.02-2.96-0.03-4.44
		c-0.07-5.86,1.36-35.48,36.57-41.69c3.87-0.68,7.79-0.97,11.72-0.97L177.96,95.77z"/>
	<path class="st0" d="M76.39,161.62c-0.08-2.51,0.2-12.52,10.4-8.75c2.12,0.78,4.07,1.97,5.79,3.44l92.4,78.85
		c0,0,14.56,11.81-3.12,14.38c-1.66,0.24-3.33,0.34-5,0.34l-82.14,0c-3.15,0-6.27-0.58-9.17-1.81c-4.59-1.94-9.71-5.9-9.17-13.84
		c0.87-12.78,0.2-61.54,0.06-70.61C76.43,162.96,76.41,162.29,76.39,161.62z"/>
	<polygon class="st0" points="156.55,139.02 148.15,182.27 191.82,176.39 	"/>
	<polygon class="st0" points="160.75,134.79 195.18,169.26 293.85,71 269.08,47.07 175.86,139.02 171.66,134.79 263.2,42.45 
		259,38.25 	"/>
	<path d="M263.2,30.69l35.68,35.68l7.36-7.43c2.14-2.17,3.71-4.86,4.38-7.83c0.76-3.34,0.59-7.63-2.8-11.81
		c-5.52-6.82-12.55-12.89-15.45-15.29c-0.66-0.55-1.31-1.1-1.96-1.67c-0.08-0.07-0.16-0.14-0.25-0.21
		c-5.77-4.78-14.27-4.26-19.54,1.06L263.2,30.69z"/>
</g>
</svg>
