<?xml version="1.0" encoding="utf-8"?>
<!-- Generator: Adobe Illustrator 24.3.0, SVG Export Plug-In . SVG Version: 6.00 Build 0)  -->
<svg version="1.1" id="Layer_1" xmlns="http://www.w3.org/2000/svg" xmlns:xlink="http://www.w3.org/1999/xlink" x="0px" y="0px"
	 viewBox="0 0 336 325" style="enable-background:new 0 0 336 325;" xml:space="preserve">
<path d="M130.17,174.65c-9.69-4.5-23.17-14.94-18.87-37.4c7.32-38.3,44.63-31.88,44.63-31.88c10.03,2.09,16.94,5.68,21.69,9.79
	l12.08-4.29c-0.01-0.01-0.03-0.03-0.04-0.04c-0.63-0.58-1.27-1.16-1.88-1.77c-14.72-14.68-29.9-17.94-42.51-16.83
	c-22.05,1.94-40.31,17.75-46.34,39.05c-2.65,9.33-4.6,21.21,1.98,32.45c9.24,15.8,20.32,22.21,29,24.69L130.17,174.65z"/>
<g>
	<path d="M258.21,70.38l-31.18,3.12l-11.43-11.09l4.5-29.8c-7.62-10.39-47.12-22.18-47.12-22.18l-17.05,25.64l-18.47,1.39
		l-18.19-27.03c-31.88,6.58-48.85,19.4-48.85,19.4l3.46,33.96l-8.32,9.7l-32.22-5.89c-16.28,13.86-21.83,50.24-21.83,50.24
		l24.6,18.02l0.69,16.11l-25.29,20.27c3.81,24.6,20.44,46.43,20.44,46.43l32.57-2.43l8.32,10.39l-1.52,11.36l13.31-19.48
		l-15.6-16.82l-30.49,2.77c-2.77-2.43-11.78-28.07-11.78-28.07l24.25-18.36l-1.04-28.76l-23.21-17.67
		c1.04-8.32,11.78-30.14,11.78-30.14l32.22,5.37l17.67-20.27l-4.16-29.45c7.62-6.58,28.07-11.09,28.07-11.09l16.98,24.25h31.88
		l16.63-24.25c14.55,3.12,28.76,13.51,28.76,13.51l-4.85,27.72l20.44,20.79l29.1-3.81c7.62,8.66,12.13,27.37,12.13,27.37
		l-17.2,14.25l9.9,8.88l21.17-17.59C280.38,98.79,258.21,70.38,258.21,70.38z"/>
	<g>
		<path d="M202.37,114.85c35.98,0,65.14,29.17,65.14,65.14c0,9.67-2.12,18.83-5.9,27.08h15.31c3.12-8.44,4.83-17.56,4.83-27.08
			c0-43.12-34.96-78.08-78.08-78.08c-43.12,0-78.08,34.96-78.08,78.08c0,6.57,0.82,12.94,2.35,19.04l11.9-0.76
			c-1.69-5.8-2.62-11.93-2.62-18.28C137.22,144.01,166.39,114.85,202.37,114.85z"/>
		<path d="M221.8,242.19c-6.14,1.92-12.67,2.95-19.44,2.95c-7.21,0-14.14-1.19-20.62-3.35v13.14c6.96,2.03,14.31,3.14,21.92,3.14
			c6.24,0,12.31-0.75,18.13-2.14V242.19z"/>
	</g>
	<g>
		<polygon points="169.97,144.6 169.97,161.6 194,161.6 194,182.38 211.4,182.38 211.4,162.11 235.49,162.11 235.49,144.6 		"/>
		<path d="M203,170.71c-23.2,0-42.01,4.55-42.01,10.16c0,5.61,18.81,10.16,42.01,10.16c23.2,0,42.01-4.55,42.01-10.16
			C245.01,175.26,226.2,170.71,203,170.71z M203,186.02c-20.77,0-37.61-3.03-37.61-6.77s16.84-6.77,37.61-6.77
			s37.61,3.03,37.61,6.77S223.77,186.02,203,186.02z"/>
		<path d="M194.24,188.64l0,29.66h17.47l0-29.88C211.71,188.42,202.05,189.45,194.24,188.64z"/>
	</g>
</g>
<g>
	<polygon points="271.4,218.82 248.67,244.93 269.47,255.09 290.75,244.93 	"/>
	<polygon points="247.7,258.11 269.95,269.72 292.2,258.11 269.95,291.21 	"/>
	<path d="M270.42,200.24c-30.33,0-54.92,24.59-54.92,54.92c0,30.33,24.59,54.92,54.92,54.92c30.33,0,54.92-24.59,54.92-54.92
		S300.75,200.24,270.42,200.24z M269.5,300.98c-25.31,0-45.82-20.52-45.82-45.82s20.52-45.82,45.82-45.82s45.82,20.52,45.82,45.82
		C315.32,280.46,294.8,300.98,269.5,300.98z"/>
</g>
<g>
	<path d="M147.7,248.08c0,0,9.83-15.21-6.96-24.82c-2.06-1.18-4.35-1.97-6.72-2.12c-0.33-0.02-0.67-0.03-1.01-0.03
		c0,0-0.19-5.05-6.29-5.56s-6.09,5.59-6.09,5.59l-10.92-0.02c0,0-6.34-0.49-6.34,6.12c0,6.6,6.34,6.16,6.34,6.16l0,35.09
		c0,0-6.85-0.45-6.34,6.57c0.51,7.02,17.77,4.99,17.77,4.99s0,5.08,4.06,5.59c4.06,0.51,7.98-0.97,7.29-5.56l6.45-0.02
		c3.56-0.01,7.07-0.99,10.02-2.97c3.38-2.28,6.73-6.24,7.21-13.09C157.19,249.57,147.7,248.08,147.7,248.08z M121.14,233.32l13.33,0
		c0,0,4.44,0,5.11,5.6s-5.51,5.6-5.51,5.6l-12.93,0V233.32z M139.63,268.65l-18.49,0v-12.27l17.09,0c0,0,6.27,0.3,6.2,6.14
		S139.63,268.65,139.63,268.65z"/>
	<path d="M128.7,192.3c-32.66,0-59.14,26.48-59.14,59.14s26.48,59.14,59.14,59.14s59.14-26.48,59.14-59.14
		C187.84,218.77,161.37,192.3,128.7,192.3z M127.71,300.78c-27.25,0-49.34-22.09-49.34-49.34s22.09-49.34,49.34-49.34
		c27.25,0,49.34,22.09,49.34,49.34C177.05,278.68,154.96,300.78,127.71,300.78z"/>
</g>
<path d="M103.37,194.38"/>
</svg>
