<?xml version="1.0" encoding="utf-8"?>
<!-- Generator: Adobe Illustrator 24.3.0, SVG Export Plug-In . SVG Version: 6.00 Build 0)  -->
<svg version="1.1" id="Layer_1" xmlns="http://www.w3.org/2000/svg" xmlns:xlink="http://www.w3.org/1999/xlink" x="0px" y="0px"
	 viewBox="0 0 376 325" style="enable-background:new 0 0 376 325;" xml:space="preserve">
<g>
	<g>
		<path d="M195.93,34.63c48.92,0,88.57,39.65,88.57,88.57c0,13.14-2.88,25.6-8.02,36.82h20.82c4.24-11.47,6.57-23.87,6.57-36.82
			c0-58.63-47.53-106.16-106.16-106.16c-58.63,0-106.16,47.53-106.16,106.16c0,8.93,1.12,17.6,3.19,25.88l16.18-1.03
			c-2.3-7.89-3.56-16.22-3.56-24.86C107.36,74.28,147.02,34.63,195.93,34.63z"/>
		<path d="M222.36,207.76c-8.35,2.61-17.22,4.01-26.42,4.01c-9.8,0-19.22-1.62-28.03-4.56v17.87c9.46,2.76,19.45,4.27,29.81,4.27
			c8.49,0,16.74-1.03,24.65-2.91V207.76z"/>
	</g>
	<g>
		<polygon points="151.89,75.08 151.89,98.19 184.55,98.19 184.55,126.45 208.21,126.45 208.21,98.88 240.97,98.88 240.97,75.08 		
			"/>
		<path d="M196.79,110.58c-31.55,0-57.12,6.18-57.12,13.81c0,7.63,25.57,13.81,57.12,13.81c31.55,0,57.12-6.18,57.12-13.81
			C253.91,116.76,228.34,110.58,196.79,110.58z M196.79,131.39c-28.24,0-51.13-4.12-51.13-9.21s22.89-9.21,51.13-9.21
			s51.13,4.12,51.13,9.21C247.92,127.27,225.03,131.39,196.79,131.39z"/>
		<path d="M184.88,134.96l0,40.33h23.76l0-40.63C208.63,134.66,195.5,136.06,184.88,134.96z"/>
	</g>
</g>
<g>
	<polygon points="289.79,175.99 258.88,211.49 287.16,225.3 316.09,211.49 	"/>
	<polygon points="257.57,229.42 287.82,245.2 318.07,229.42 287.82,274.41 	"/>
	<path d="M288.45,150.73c-41.24,0-74.67,33.43-74.67,74.67c0,41.24,33.43,74.67,74.67,74.67s74.67-33.43,74.67-74.67
		C363.12,184.16,329.69,150.73,288.45,150.73z M287.2,287.7c-34.41,0-62.3-27.89-62.3-62.3c0-34.41,27.89-62.3,62.3-62.3
		c34.41,0,62.3,27.89,62.3,62.3S321.61,287.7,287.2,287.7z"/>
</g>
<g>
	<path d="M121.61,215.77c0,0,13.37-20.68-9.47-33.75c-2.81-1.61-5.91-2.67-9.14-2.89c-0.45-0.03-0.91-0.04-1.37-0.04
		c0,0-0.26-6.86-8.55-7.55c-8.28-0.69-8.28,7.59-8.28,7.59l-14.85-0.03c0,0-8.62-0.66-8.62,8.31s8.62,8.37,8.62,8.37l0,47.71
		c0,0-9.32-0.62-8.62,8.93c0.69,9.55,24.16,6.79,24.16,6.79s0,6.9,5.52,7.59c5.52,0.69,10.86-1.32,9.92-7.56l8.77-0.02
		c4.84-0.01,9.62-1.34,13.63-4.04c4.6-3.09,9.15-8.48,9.8-17.79C134.51,217.8,121.61,215.77,121.61,215.77z M85.49,195.7l18.12,0
		c0,0,6.04,0,6.95,7.61c0.91,7.61-7.5,7.61-7.5,7.61l-17.58,0L85.49,195.7z M110.63,243.74l-25.14,0l0-16.69l23.23,0
		c0,0,8.53,0.41,8.43,8.34C117.04,243.33,110.63,243.74,110.63,243.74z"/>
	<path d="M95.78,139.93c-44.41,0-80.4,36-80.4,80.4s36,80.41,80.4,80.41s80.4-36,80.4-80.4
		C176.18,175.93,140.18,139.93,95.78,139.93z M94.43,287.42c-37.05,0-67.08-30.03-67.08-67.08s30.03-67.08,67.08-67.08
		c37.05,0,67.08,30.03,67.08,67.08C161.52,257.39,131.48,287.42,94.43,287.42z"/>
</g>
</svg>
