<?xml version="1.0" encoding="utf-8"?>
<!-- Generator: Adobe Illustrator 24.3.0, SVG Export Plug-In . SVG Version: 6.00 Build 0)  -->
<svg version="1.1" id="Layer_1" xmlns="http://www.w3.org/2000/svg" xmlns:xlink="http://www.w3.org/1999/xlink" x="0px" y="0px"
	 viewBox="0 0 269 325" style="enable-background:new 0 0 269 325;" xml:space="preserve">
<path d="M218.1,17.88v136.45c0,0-35.73-58.28-92.68-43.76s-70.35,58.07-75.93,84.87l-40.2,12.28l8.93,18.98l30.15-8.93
	c0,0,0,16.75,4.47,27.92l-23.45,8.93l7.82,18.98l23.45-8.93c0,0,26.8,55.83,85.98,52.48c0,0,45.78-1.83,71.47-47.26V306l40.2-12.31
	V7.97L218.1,17.88z M185.54,270.34c-8.75,4.31-19.87,7.6-32.76,6.77c-10.34-0.66-20.27-4.16-29.1-9.59
	c-6.36-3.91-14-9.7-19.49-17.38l58.07-20.1l-12.28-15.63l-55.83,18.98c0,0-4.47-17.87-2.23-30.15l53.6-16.75l-11.73-16.2
	l-35.18,10.62c0,0,15.46-29.65,50.72-33.81s56.48,21.53,56.48,21.53s24.33,25.8,14.28,60.63
	C214.93,247.17,202.26,262.11,185.54,270.34z"/>
</svg>
