<?xml version="1.0" encoding="utf-8"?>
<!-- Generator: Adobe Illustrator 24.3.0, SVG Export Plug-In . SVG Version: 6.00 Build 0)  -->
<svg version="1.1" id="Layer_1" xmlns="http://www.w3.org/2000/svg" xmlns:xlink="http://www.w3.org/1999/xlink" x="0px" y="0px"
	 viewBox="0 0 216 325" style="enable-background:new 0 0 216 325;" xml:space="preserve">
<path d="M13.66,150.23h24.36l3.27,135.28c0.05,1.93,0.41,3.85,1.17,5.62c1.31,3.05,4.11,6.65,10.01,6.89h87.93
	c0,0,15.92,0,16.16-12.72c0.03-1.71,0.02-3.43,0.1-5.14l6.03-129.93h23.94l-11.15,142.83c0,0-1.24,19.81-21.05,18.58l-108.64,0.05
	c-5.37,0-10.64-1.9-14.54-5.59c-3.57-3.38-6.68-8.74-6.85-17.17L13.66,150.23z"/>
<path d="M67.28,261.78L67.28,261.78c-3.48,0-6.33-2.85-6.33-6.33v-49.45c0-3.48,2.85-6.33,6.33-6.33h0c3.48,0,6.33,2.85,6.33,6.33
	v49.45C73.61,258.93,70.77,261.78,67.28,261.78z"/>
<path d="M133.35,261.78L133.35,261.78c-3.46,0-6.28-2.83-6.28-6.28v-49.06c0-3.46,2.83-6.28,6.28-6.28h0c3.46,0,6.28,2.83,6.28,6.28
	v49.06C139.63,258.95,136.8,261.78,133.35,261.78z"/>
<path d="M99.73,290.59L99.73,290.59c-5.11,0-9.29-4.18-9.29-9.29V166.95c0-5.11,4.18-9.29,9.29-9.29h0c5.11,0,9.29,4.18,9.29,9.29
	V281.3C109.02,286.41,104.84,290.59,99.73,290.59z"/>
<path d="M151.67,30.68c1.3-1.01,3.8-3.47,3.79-7.42c-0.01-5.74-5.11-10.33-10.84-9.92c-3.1,0.22-6.94,1.6-11.27,5.46
	c-1.03,0.92-2.06,1.85-3.11,2.75l-21.22,18.21c0,0-6.94-10.12-18.58-5.69c-11.16,4.24-27.77,15.76-35.03,31.2
	c-1.1,2.33-1.71,4.88-1.57,7.46c0.14,2.65,1.02,5.88,3.78,8.78l-43.96,34.78c0,0-8.78,7.25-2.37,14.97
	c2.5,3.02,6.32,4.64,10.24,4.64l156.46,0c2.6,0,5.19-0.58,7.49-1.79c3.08-1.63,6.26-4.62,5.58-9.91c-0.98-7.62-10-7.98-13.96-7.76
	c-2.42,0.13-4.85,0.17-7.28,0.17H45.92l102.6-83.44C149.55,32.3,150.61,31.49,151.67,30.68z"/>
<path d="M137.09,62.2l-17.5,32.88l48.69,5.69l-7.9-19.29c0,0,43.63-9.49,44.27,40.79c0,0,2.37-14.77-2.66-29.44
	c-6.23-18.16-24.89-29.3-43.8-26.02c-3.41,0.59-6.81,1.7-9.82,3.6L137.09,62.2z"/>
</svg>
