<?xml version="1.0" encoding="utf-8"?>
<!-- Generator: Adobe Illustrator 24.3.0, SVG Export Plug-In . SVG Version: 6.00 Build 0)  -->
<svg version="1.1" id="Layer_1" xmlns="http://www.w3.org/2000/svg" xmlns:xlink="http://www.w3.org/1999/xlink" x="0px" y="0px"
	 viewBox="0 0 317.87 325" style="enable-background:new 0 0 317.87 325;" xml:space="preserve">
<path d="M215.77,188.46h82.65c1.36,0,2.46-1.11,2.46-2.46V23.02c0-1.36-1.11-2.46-2.46-2.46l-82.65,0c-1.35,0-2.45,1.1-2.46,2.46
	l0,162.99C213.31,187.36,214.42,188.46,215.77,188.46z M222.54,40.2c0.01-1.07,0.88-1.94,1.94-1.94h65.23
	c1.06,0,1.94,0.87,1.94,1.94l0,128.63c0,1.06-0.87,1.94-1.94,1.94h-65.23c-1.06,0-1.94-0.87-1.94-1.94V40.2z"/>
<path d="M14.8,184.39c7.84,16.65,24.89,18.81,29.61,19.09c2.25,0.13,4.51,0.25,6.77,0.4l43.46,2.86c0,0-2.43,35.39-2.44,58.11
	c-0.01,20.28,11.3,28.86,13.72,30.46c0.4,0.27,0.81,0.56,1.2,0.84c29.2,21.02,34.44-4.03,35.13-8.61c0.24-1.5,0.45-2.99,0.7-4.49
	c11.35-70.04,30.71-94.71,40.32-100.25c7.94-4.58,8.63-13.49,8.61-16.67c-0.02-2.56-0.05-5.13-0.05-7.7v-8.88
	c0,0-0.86-93.2-0.86-105.7c0-8.32-8.87-9.4-14.78-9.19c-8.07,0.28-16.15,0.5-24.23,0.47l-52.72-0.16
	c-7.05-0.03-14.1-0.15-21.15-0.44c-9.42-0.4-27.9,0-34.49,8.44c-9,11.53-5.2,29.2-5.2,29.2c-6.48,1.52-10.09,8.48-12.4,15.77
	c-2.32,7.3,5.23,21.54,5.23,21.54s-15.06,7.81-15.46,20.78c-0.4,12.97,8.28,23.71,8.28,23.71S5.66,164.96,14.8,184.39z
	 M40.09,156.48c0,0-7.28-8.99-6.94-19.86c0.34-10.86,12.95-17.41,12.95-17.41s-6.32-11.93-4.38-18.04
	c1.94-6.11,4.96-11.94,10.39-13.21c0,0-3.18-14.8,4.35-24.46c5.52-7.07,21-7.4,28.89-7.07c5.9,0.24,11.81,0.35,17.71,0.37
	l44.16,0.13c6.77,0.02,13.54-0.16,20.3-0.39c4.95-0.17,12.38,0.73,12.38,7.7c0,10.47,0.72,88.54,0.72,88.54v7.44
	c0,2.15,0.02,4.3,0.04,6.45c0.02,2.66-0.56,10.12-7.21,13.96c-8.05,4.64-24.26,25.3-33.77,83.97c-0.2,1.25-0.39,2.51-0.58,3.76
	c-0.58,3.84-4.97,24.82-29.43,7.21c-0.33-0.24-0.67-0.47-1.01-0.7c-2.03-1.35-11.5-8.53-11.49-25.52
	c0.01-19.03,2.04-48.67,2.04-48.67l-36.4-2.4c-1.89-0.13-3.78-0.23-5.67-0.34c-3.95-0.23-18.23-2.04-24.8-15.99
	C24.68,165.69,40.09,156.48,40.09,156.48z"/>
</svg>
