<?xml version="1.0" encoding="utf-8"?>
<!-- Generator: Adobe Illustrator 24.3.0, SVG Export Plug-In . SVG Version: 6.00 Build 0)  -->
<svg version="1.1" id="Layer_1" xmlns="http://www.w3.org/2000/svg" xmlns:xlink="http://www.w3.org/1999/xlink" x="0px" y="0px"
	 viewBox="0 0 335 325" style="enable-background:new 0 0 335 325;" xml:space="preserve">
<path d="M231.46,12l87.82,0c1.43,0,2.61,1.17,2.61,2.61l0,173.18c0,1.43-1.17,2.61-2.61,2.61l-87.82,0c-1.43,0-2.61-1.17-2.61-2.61
	l0-173.18C228.86,13.17,230.03,12,231.46,12z"/>
<path d="M206.03,149.05l0,9.44c0,2.73,0.03,5.46,0.05,8.18c0.02,3.38-0.71,12.84-9.15,17.71c-10.21,5.89-30.78,32.1-42.84,106.52
	c-0.26,1.59-0.49,3.18-0.74,4.77c-0.74,4.87-6.3,31.49-37.33,9.15c-0.42-0.3-0.85-0.6-1.28-0.89c-2.57-1.71-14.59-10.82-14.58-32.37
	c0.01-24.14,2.59-61.74,2.59-61.74l-46.18-3.04c-2.4-0.16-4.8-0.29-7.19-0.43c-5.01-0.29-23.13-2.59-31.46-20.28
	c-9.71-20.64,9.84-32.32,9.84-32.32s-9.23-11.41-8.8-25.19c0.42-13.77,16.43-22.08,16.43-22.08s-8.02-15.13-5.56-22.89
	S36.1,68.47,43,66.85c0,0-4.04-18.78,5.52-31.03c7-8.97,26.64-9.39,36.65-8.97c7.49,0.31,14.98,0.44,22.47,0.47l56.02,0.17
	c8.59,0.03,17.17-0.2,25.75-0.5c6.28-0.22,15.7,0.93,15.7,9.77C205.11,50.02,206.03,149.05,206.03,149.05z"/>
</svg>
