<?xml version="1.0" encoding="utf-8"?>
<!-- Generator: Adobe Illustrator 24.3.0, SVG Export Plug-In . SVG Version: 6.00 Build 0)  -->
<svg version="1.1" id="Layer_1" xmlns="http://www.w3.org/2000/svg" xmlns:xlink="http://www.w3.org/1999/xlink" x="0px" y="0px"
	 viewBox="0 0 339 325" style="enable-background:new 0 0 339 325;" xml:space="preserve">
<path d="M60.94,56.93h41.1c0,0,76.3-51.9,149.7,11.3s32.7,145.6,32.7,145.6s-25.1,66.6-104,74.2c-7.1,0.7-14.3,0.6-21.4-0.2
	c-16.8-1.9-47.9-8.1-69.9-27.7l6.5-6.5c1.9-1.9,3.3-4.3,3.7-6.9c0.4-2.3,0.3-5.3-1.6-8.3c-1.9-3.2-5.2-5.4-8.8-6.4l-40.4-10.4
	c0,0-11.4-2.4-15.5,9.3c-1.3,3.8-1.3,7.9-0.3,11.7l9,35c0.1,0.3,0.2,0.6,0.3,0.8l0,0c4.8,10,18,12.5,26,4.8l4.2-4.1
	c0,0,82.4,70.4,181.2,10.3s60.4-175.2,60.4-175.2s-23.7-85.5-118.5-101.3C195.34,12.93,115.14-2.87,60.94,56.93z"/>
<path d="M163.24,93.03v76.9c0,6.2,5.1,11.3,11.3,11.3l80.2-0.1c6.2,0,11.3-5.1,11.3-11.3l0,0c0-6.2-5.1-11.3-11.3-11.3l-54.8,0.2
	c-6.2,0-11.3-5-11.3-11.3v-54.4c0-6.2-5-11.3-11.3-11.3h-2.7C168.34,81.73,163.24,86.83,163.24,93.03z"/>
<g>
	<g>
		<path d="M30.76,170.96h-7.67c-4.21,0-7.65-3.44-7.65-7.65v-52.47c0-4.21,3.44-7.65,7.65-7.65h7.67c4.21,0,7.65,3.44,7.65,7.65
			v52.47C38.41,167.52,34.97,170.96,30.76,170.96z"/>
		<rect x="22.51" y="76.09" width="8.83" height="115.21"/>
	</g>
	<g>
		<path d="M81.53,194.2h-7.36c-4.53,0-8.24-3.71-8.24-8.24v-51.97c0-4.53,3.71-8.24,8.24-8.24h7.36c4.53,0,8.24,3.71,8.24,8.24
			v51.97C89.77,190.49,86.07,194.2,81.53,194.2z"/>
		<rect x="73.6" y="95.26" width="8.51" height="115.21"/>
	</g>
	<g>
		<path d="M130.22,174.2h-8.54c-4.04,0-7.35-3.31-7.35-7.35v-63.9c0-4.04,3.31-7.35,7.35-7.35h8.54c4.04,0,7.35,3.31,7.35,7.35v63.9
			C137.57,170.89,134.26,174.2,130.22,174.2z"/>
		<rect x="121.76" y="77.29" width="9.3" height="115.21"/>
	</g>
</g>
</svg>
