<?xml version="1.0" encoding="utf-8"?>
<!-- Generator: Adobe Illustrator 24.3.0, SVG Export Plug-In . SVG Version: 6.00 Build 0)  -->
<svg version="1.1" id="Layer_1" xmlns="http://www.w3.org/2000/svg" xmlns:xlink="http://www.w3.org/1999/xlink" x="0px" y="0px"
	 viewBox="0 0 324.77 325" style="enable-background:new 0 0 324.77 325;" xml:space="preserve">
<path d="M161.97,12.76c-82.7,0-149.74,67.04-149.74,149.74s67.04,149.74,149.74,149.74S311.71,245.2,311.71,162.5
	S244.67,12.76,161.97,12.76z M161.97,284.35c-67.3,0-121.85-54.56-121.85-121.85c0-67.3,54.56-121.85,121.85-121.85
	c67.3,0,121.85,54.56,121.85,121.85C283.82,229.8,229.27,284.35,161.97,284.35z"/>
<polygon points="178.46,224.28 136.36,224.28 178.46,179.97 80.42,179.97 80.42,145.63 178.46,145.63 134.7,101.87 178.46,101.87 
	237.6,161.01 "/>
</svg>
