<?xml version="1.0" encoding="utf-8"?>
<!-- Generator: Adobe Illustrator 24.3.0, SVG Export Plug-In . SVG Version: 6.00 Build 0)  -->
<svg version="1.1" id="Layer_1" xmlns="http://www.w3.org/2000/svg" xmlns:xlink="http://www.w3.org/1999/xlink" x="0px" y="0px"
	 viewBox="0 0 325.28 325" style="enable-background:new 0 0 325.28 325;" xml:space="preserve">
<path d="M290.78,146.34v50.95l-43.46-43.1l-10.06-10.57c-2.74-2.82-8.38-6.24-16.57,0.79l-29.9,26.22l29.35,30.87
	c4.36,4.57,4.62,11.8,0.36,16.47c-0.07,0.07-0.14,0.14-0.22,0.22c-4.89,5.15-12.38-1.11-16.42-5.35c-3.47-3.61-6.93-7.25-10.5-10.76
	l-67.15-65.73c-1.28-1.23-2.43-2.58-3.59-3.9c-1.95-2.22-6.93-5.75-15.84,1.32l-71.73,63.52V70.83c0-7.58,2-15.1,6.21-21.41
	c3.66-5.49,9.37-10.93,18.25-13.56c3.2-0.94,6.55-1.28,9.87-1.28h185.76c0,0,35.85,0.36,35.95,42.5c0.02,6.36,5.2,11.77,11.53,11.46
	c3.78-0.19,7.54-2.43,9.63-9.32c0.96-3.15,1.25-6.45,1.13-9.73c-0.36-11.65-4.62-41.17-37.32-53.55c-7.95-3.01-16.42-4.31-24.9-4.31
	H82.24c-3.78,0-7.56-0.05-11.34-0.1c-11.85-0.12-59.23,2.43-59.23,50.49v178.32c0,4.48-0.1,8.96-0.19,13.41
	c-0.24,12.16,2.31,51.21,44.76,59.83c4.74,0.96,9.58,1.3,14.42,1.3H255c1.97,0,3.92,0.05,5.9,0.07c9.27,0.17,53.72-2.53,52.51-69.34
	l0.02-94.58c0-6.4-3.95-12.38-10.09-14.23c-0.07-0.02-0.17-0.05-0.24-0.07C296.89,135,290.78,139.89,290.78,146.34z"/>
<path d="M141.8,116.06l32.79,33.2l39.34-37.71C213.94,111.56,177.46,69.33,141.8,116.06z"/>
</svg>
