<?xml version="1.0" encoding="utf-8"?>
<!-- Generator: Adobe Illustrator 24.3.0, SVG Export Plug-In . SVG Version: 6.00 Build 0)  -->
<svg version="1.1" id="Layer_1" xmlns="http://www.w3.org/2000/svg" xmlns:xlink="http://www.w3.org/1999/xlink" x="0px" y="0px"
	 viewBox="0 0 324 325" style="enable-background:new 0 0 324 325;" xml:space="preserve">
<style type="text/css">
	.st0{fill:#F90000;}
</style>
<g>
	<rect x="77.5" y="80.08" width="7.03" height="159.65"/>
	<rect x="77.5" y="232.7" width="172.47" height="7.03"/>
	<path d="M97.76,219.05V86.74c0,0,0.19-6.66,6.3-6.66h18.42c1.62,0,3.22,0.42,4.58,1.29c1.69,1.09,3.37,3.05,3.37,6.57v131.11H97.76
		z"/>
	<path d="M216.46,219.05v-12c0-3.38,2.73-6.13,6.12-6.14c0.06,0,0.12,0,0.18,0h18.42c1.62,0,3.22,0.05,4.58,0.17
		c1.69,0.14,3.37,1.8,3.37,2.26v15.72H216.46z"/>
	<path d="M137.88,219.05v-94.56c0,0,0.19-4.76,6.3-4.76h18.42c1.62,0,3.22,0.3,4.58,0.92c1.69,0.78,3.37,2.18,3.37,4.69v93.71
		H137.88z"/>
	<path d="M177.17,219.05v-52.94c0-3.39,2.72-6.17,6.12-6.2c0.06,0,0.12,0,0.18,0h18.42c1.62,0,3.22,0.18,4.58,0.55
		c1.69,0.46,3.37,1.3,3.37,2.79v55.8H177.17z"/>
</g>
<polygon class="st0" points="242.63,53.53 54.69,246.78 74.2,266.28 265.67,74.8 "/>
<path class="st0" d="M161.96,13.3c-82.44,0-149.27,66.83-149.27,149.27s66.83,149.27,149.27,149.27S311.22,245,311.22,162.56
	S244.39,13.3,161.96,13.3z M161.96,289.2c-69.94,0-126.63-56.7-126.63-126.63c0-69.94,56.7-126.63,126.63-126.63
	s126.63,56.7,126.63,126.63C288.59,232.5,231.89,289.2,161.96,289.2z"/>
</svg>
