<?xml version="1.0" encoding="utf-8"?>
<!-- Generator: Adobe Illustrator 24.3.0, SVG Export Plug-In . SVG Version: 6.00 Build 0)  -->
<svg version="1.1" id="Layer_1" xmlns="http://www.w3.org/2000/svg" xmlns:xlink="http://www.w3.org/1999/xlink" x="0px" y="0px"
	 viewBox="0 0 295.5 300" style="enable-background:new 0 0 295.5 300;" xml:space="preserve">
<style type="text/css">
	.st0{fill:#F90000;}
</style>
<g>
	<path d="M217.54,75.41c-1.74,0.03-3.48,0.08-5.22,0.08l-116.29,0c-4.6,0-4.97,3.5-4.94,4.86c0.02,0.76,0.04,1.53,0.04,2.29l0,73.44
		l-20.67,0c-1.09,0-2.17-0.07-3.26-0.13c-4.19-0.21-4.52,4.77-4.46,6.88c0.02,1,0.04,1.99,0.03,2.99
		c-0.07,6.27-0.25,25.59,0.02,40.29c0.19,10.01,6,14.71,11.05,16.9c2.98,1.29,6.2,1.9,9.45,1.9l121.21,0
		c18.81,0,19.14-19.18,19.14-19.18l0-123.19C223.64,76.03,219.43,75.37,217.54,75.41z M85.75,215.63
		c-3.13,1.82-7.05,1.84-10.12-0.09c-2.38-1.5-4.65-4.34-4.51-9.77c0.02-1.01,0.06-2.02,0.06-3.03l0-37.94h19.31l0,41.11
		c0,0.39,0,0.78,0.01,1.17C90.51,208.28,90.25,213.03,85.75,215.63z M215.92,206.12c-1.01,11.08-10.27,11.08-10.27,11.08l-110.29,0
		c2.35-2.35,3.7-9.52,3.7-9.52l0-124.46l116.86,0L215.92,206.12L215.92,206.12z"/>
	<path d="M200.31,152.39l-85.97,0c-1.94,0-3.52-1.58-3.52-3.52v-1.02c0-1.94,1.58-3.52,3.52-3.52l85.97,0
		c1.94,0,3.52,1.58,3.52,3.52v1.02C203.83,150.8,202.24,152.39,200.31,152.39z"/>
	<path d="M200.45,174.21l-86.27,0c-1.85,0-3.38-1.52-3.38-3.38v-0.97c0-1.85,1.52-3.38,3.38-3.38l86.27,0
		c1.85,0,3.38,1.52,3.38,3.38v0.97C203.83,172.7,202.31,174.21,200.45,174.21z"/>
	<path d="M200.31,196.71l-85.97,0c-1.94,0-3.52-1.58-3.52-3.52v-1.02c0-1.94,1.58-3.52,3.52-3.52l85.97,0
		c1.94,0,3.52,1.58,3.52,3.52v1.02C203.83,195.13,202.24,196.71,200.31,196.71z"/>
	<path d="M200.31,108.06l-30.23,0c-1.94,0-3.52-1.58-3.52-3.52v-1.02c0-1.94,1.58-3.52,3.52-3.52l30.23,0
		c1.94,0,3.52,1.58,3.52,3.52v1.02C203.83,106.48,202.24,108.06,200.31,108.06z"/>
	<path d="M200.16,127.87l-29.93,0c-2.02,0-3.67-1.65-3.67-3.67v-1.06c0-2.02,1.65-3.67,3.67-3.67l29.93,0
		c2.02,0,3.67,1.65,3.67,3.67v1.06C203.83,126.22,202.18,127.87,200.16,127.87z"/>
	<path d="M157.54,94.63l-40.07,0c-2.74,0-4.98,2.24-4.98,4.98l0,34.03c0,2.74,2.24,4.98,4.98,4.98l40.07,0
		c2.74,0,4.98-2.24,4.98-4.98l0-34.03C162.52,96.87,160.28,94.63,157.54,94.63z M155.47,123.9c0,2.74-2.24,4.98-4.98,4.98l-25.97,0
		c-2.74,0-4.98-2.24-4.98-4.98l0-16.9c0-2.74,2.24-4.98,4.98-4.98l25.97,0c2.74,0,4.98,2.24,4.98,4.98L155.47,123.9z"/>
</g>
<polygon class="st0" points="218.97,52.7 52.37,224.01 69.66,241.29 239.39,71.55 "/>
<path class="st0" d="M147.46,17.04c-73.08,0-132.32,59.24-132.32,132.32s59.24,132.32,132.32,132.32
	c73.08,0,132.31-59.25,132.31-132.33C279.77,76.27,220.53,17.04,147.46,17.04z M147.46,261.61c-62,0-112.25-50.26-112.25-112.25
	c0-62,50.26-112.25,112.25-112.25s112.25,50.26,112.25,112.25C259.71,211.35,209.45,261.61,147.46,261.61z"/>
</svg>
