<?xml version="1.0" encoding="utf-8"?>
<!-- Generator: Adobe Illustrator 24.3.0, SVG Export Plug-In . SVG Version: 6.00 Build 0)  -->
<svg version="1.1" id="Layer_1" xmlns="http://www.w3.org/2000/svg" xmlns:xlink="http://www.w3.org/1999/xlink" x="0px" y="0px"
	 viewBox="0 0 325 325" style="enable-background:new 0 0 325 325;" xml:space="preserve">
<path d="M22.65,61.58L39.47,75.6c0,0,36.46-61.71,117.81-61.71s143.05,53.29,154.27,137.44h-31.21c0,0-10.86-100.98-111.84-106.59
	c0,0-70.12-2.8-106.59,53.29l16.83,19.63L11.43,128.9L22.65,61.58z"/>
<path d="M299.38,268.37l-16.83-14.02c0,0-36.46,61.71-117.81,61.71S21.69,262.76,10.47,178.61h31.21c0,0,10.86,100.98,111.84,106.59
	c0,0,70.12,2.8,106.59-53.29l-16.83-19.63l67.32-11.22L299.38,268.37z"/>
<path d="M142.01,94.43v94.42h90.79c7.51,0,14.29-5.39,15.12-12.85c0.11-0.98,0.12-1.99-0.01-3.03c-0.79-6.68-6.99-11.41-13.72-11.37
	L176.13,162V95.65c0-7.41-3.95-14.53-10.66-17.67c-3.91-1.82-8.61-2.53-13.63-0.08C145.64,80.93,142.01,87.54,142.01,94.43z"/>
</svg>
