<?xml version="1.0" encoding="utf-8"?>
<!-- Generator: Adobe Illustrator 24.3.0, SVG Export Plug-In . SVG Version: 6.00 Build 0)  -->
<svg version="1.1" id="Layer_1" xmlns="http://www.w3.org/2000/svg" xmlns:xlink="http://www.w3.org/1999/xlink" x="0px" y="0px"
	 viewBox="0 0 404 356" style="enable-background:new 0 0 404 356;" xml:space="preserve">
<path d="M36.99,296.42c0,0,7.34-18.4-15.18-24.96c-22.52-6.56,18.85-2.25,22.01,12.67c3.16,14.92,5.76-35.87,5.76-35.87l3.16,34.33
	l8.39-23.75l-2.09,17.67l6.82-7.56l5.25,11.09l17.05,3.22l-5.01-17.34l6.27,10.58l6.59-34.3v34.81c0,0,3.73-37.19,14.03-31.95
	c0,0-9.49-2.54-6.56,24.26l3.77-4.41l2.8,19.66c0,0,17.11-18.66,10.29-33.26c0,0,8.97,12.58,1.61,33.26l8.36-11.06l13.09,10.1
	l9.94-55.98l-1.58,55.66l6.82-33.97v31.27c0,0,11-17.67,5.76-40.86c-5.25-23.19,9.43,6.21,5.25,32.78l6.27-6.05v16.76
	c0,0,3.16-41.4,20.94-38.19c0,0-19.92,10.33-5.25,37.54l3.16-20.59l5.6,14.51c0,0,12.32-19.66,10.71-29.24
	c-1.61-9.58,8.72,13.12,0.16,29.24c1.05,6.08,12.39-2.03,12.39-2.03l13.68,8.75l5.98-15.31l20.62,9.59c0,0,17.92-36.77,11.59-54.2
	c0,0,9.49,23.42,0,55.21l12-21.94v16.41c0,0,9.94-30.63,17.27-27.93c0,0-13.09,19.85-4.73,28.44l7.85-13.61v13.61
	c0,0,19.92-20.69,7.85-44.4c0,0,15.18,15.64,6.82,47.42l16.76-16.63l6.27,15.12l11.16-36.32c0,0-0.67,27.73-0.67,31.27
	s0.51-11.62,11.52-16.15c0,0-13.61,16.15,0,22.2l13.09-19.43l-3.16,18.4l7.34-7.04v11.09l6.82-19.17l2.92,36.58H36.99V296.42z"/>
<polygon points="15.11,210.98 68.54,200.27 68.54,295.75 94.22,295.75 94.22,200.27 136.36,200.27 136.36,295.75 155.43,296.42 
	155.43,162.08 248.71,84.22 331.7,169.23 331.7,296.42 352.84,296.42 352.84,190.33 368.09,205.57 394.54,190.33 250.64,55.37 
	133.66,118.01 "/>
<rect x="209.46" y="201.14" width="56.62" height="95.25"/>
<circle cx="246.33" cy="151.43" r="21.2"/>
</svg>
