<?xml version="1.0" encoding="utf-8"?>
<!-- Generator: Adobe Illustrator 24.3.0, SVG Export Plug-In . SVG Version: 6.00 Build 0)  -->
<svg version="1.1" id="Layer_1" xmlns="http://www.w3.org/2000/svg" xmlns:xlink="http://www.w3.org/1999/xlink" x="0px" y="0px"
	 viewBox="0 0 376 376" style="enable-background:new 0 0 376 376;" xml:space="preserve">
<path d="M222.36,139.02v-30.08c0,0,0.58-10.33-10.33-10.33c-10.91,0-10.91,12.09-10.91,12.09v53.09c0,0-1.17,12.31,10.63,12.66
	c11.8,0.35,56.7,0,56.7,0s9.39,0.35,9.39-10.27c0-0.11,0-0.21,0-0.32c-0.1-6.52-5.68-11.62-12.2-11.28l-26.18,1.38l35.9-35.9
	c2.06-2.06,3.48-4.73,3.75-7.63c0.32-3.37-0.69-7.62-6-11.16c-7.08-4.72-12.07-1.05-14.6,1.92c-4.01,4.7-8.4,9.05-12.85,13.34
	L222.36,139.02z"/>
<path d="M140.35,219.98l-30.08,0.45c0,0-10.32,0.73-10.49-10.18s11.93-11.09,11.93-11.09l53.08-0.8c0,0,12.29-1.36,12.82,10.43
	c0.53,11.79,0.86,56.69,0.86,56.69s0.49,9.39-10.13,9.55c-0.11,0-0.21,0-0.32,0c-6.53,0-11.71-5.5-11.46-12.02l0.98-26.2
	l-35.35,36.44c-2.03,2.09-4.68,3.55-7.58,3.87c-3.36,0.37-7.63-0.57-11.25-5.83c-4.83-7.01-1.23-12.05,1.7-14.63
	c4.64-4.08,8.93-8.54,13.15-13.05L140.35,219.98z"/>
<path d="M187.5,9.75C89.06,9.75,9.25,89.56,9.25,188S89.06,366.25,187.5,366.25S365.75,286.44,365.75,188S285.94,9.75,187.5,9.75z
	 M187.5,334.78c-81.06,0-146.78-65.71-146.78-146.78S106.44,41.22,187.5,41.22S334.28,106.94,334.28,188
	C334.28,269.06,268.56,334.78,187.5,334.78z"/>
</svg>
