<?xml version="1.0" encoding="utf-8"?>
<!-- Generator: Adobe Illustrator 24.3.0, SVG Export Plug-In . SVG Version: 6.00 Build 0)  -->
<svg version="1.1" id="Layer_1" xmlns="http://www.w3.org/2000/svg" xmlns:xlink="http://www.w3.org/1999/xlink" x="0px" y="0px"
	 viewBox="0 0 285.7 325" style="enable-background:new 0 0 285.7 325;" xml:space="preserve">
<path d="M227.93,107.94c-0.4-44.29-22.04-66.74-43.58-78.11c-27.16-14.34-60.05-13.37-86.41,2.39
	c-42.39,25.34-39.08,72.9-39.08,72.9c4.85,76.85,84.75,150.87,84.75,150.87C229.98,170.23,227.93,107.94,227.93,107.94z
	 M144.21,145.96c-25.69,0-46.51-20.83-46.51-46.51c0-25.69,20.83-46.52,46.51-46.52s46.51,20.83,46.51,46.52
	C190.72,125.14,169.89,145.96,144.21,145.96z"/>
<path d="M90.73,219.48c0,0-79.61,9.82-79.1,47.04s117.35,48.6,138.55,46.53c16.03-1.56,88.23-5.49,115.33-29.67
	c12.74-11.37,11.25-31.59-2.85-41.21c-10.64-7.26-30.28-16.56-65.43-22.69l-10.34,12.41c0,0,75.09,9.78,47.73,31.8
	c-4.27,3.44-9.37,5.72-14.73,6.85c-19.95,4.21-84.27,15.46-148.13,1.36c-5.06-1.12-9.98-2.87-14.5-5.42
	c-12.57-7.07-26.29-21.91,43.82-35.11L90.73,219.48z"/>
</svg>
