<?xml version="1.0" encoding="utf-8"?>
<!-- Generator: Adobe Illustrator 24.3.0, SVG Export Plug-In . SVG Version: 6.00 Build 0)  -->
<svg version="1.1" id="Layer_1" xmlns="http://www.w3.org/2000/svg" xmlns:xlink="http://www.w3.org/1999/xlink" x="0px" y="0px"
	 viewBox="0 0 316.6 325" style="enable-background:new 0 0 316.6 325;" xml:space="preserve">
<path d="M159.32,16.72c-80.45,0-145.67,65.22-145.67,145.67s65.22,145.67,145.67,145.67s145.67-65.22,145.67-145.67
	S239.77,16.72,159.32,16.72z M159.32,286.18c-68.37,0-123.79-55.42-123.79-123.79S90.95,38.6,159.32,38.6
	s123.79,55.42,123.79,123.79S227.69,286.18,159.32,286.18z"/>
<path d="M169.71,109.24V68.48l100.71,69.14l-100.71,77.53v-47.16c0,0-59.55-14.1-79.93,15.33s-2,60.2-2,60.2
	S18.24,109.24,169.71,109.24z"/>
</svg>
