<?xml version="1.0" encoding="utf-8"?>
<!-- Generator: Adobe Illustrator 24.3.0, SVG Export Plug-In . SVG Version: 6.00 Build 0)  -->
<svg version="1.1" id="Layer_1" xmlns="http://www.w3.org/2000/svg" xmlns:xlink="http://www.w3.org/1999/xlink" x="0px" y="0px"
	 viewBox="0 0 333 325" style="enable-background:new 0 0 333 325;" xml:space="preserve">
<g>
	<path d="M125.74,134.71c-6.26,0-11.35-5.09-11.35-11.35v-1.47c0-6.26,5.09-11.35,11.35-11.35h113.03c6.26,0,11.35,5.09,11.35,11.35
		v1.47c0,6.26-5.09,11.35-11.35,11.35H125.74z"/>
	<path d="M125.74,110.04v1l113.03,0c5.98,0,10.85,4.87,10.85,10.85v1.47c0,5.98-4.87,10.85-10.85,10.85l-113.03,0
		c-5.98,0-10.85-4.87-10.85-10.85v-1.47c0-5.98,4.87-10.85,10.85-10.85V110.04 M125.74,110.04c-6.52,0-11.85,5.33-11.85,11.85v1.47
		c0,6.52,5.33,11.85,11.85,11.85l113.03,0c6.52,0,11.85-5.33,11.85-11.85v-1.47c0-6.52-5.33-11.85-11.85-11.85L125.74,110.04
		L125.74,110.04z"/>
</g>
<g>
	<path d="M125.74,177.56c-6.26,0-11.35-5.09-11.35-11.35v-1.47c0-6.26,5.09-11.35,11.35-11.35h113.03c6.26,0,11.35,5.09,11.35,11.35
		v1.47c0,6.26-5.09,11.35-11.35,11.35H125.74z"/>
	<path d="M125.74,152.89v1l113.03,0c5.98,0,10.85,4.87,10.85,10.85v1.47c0,5.98-4.87,10.85-10.85,10.85l-113.03,0
		c-5.98,0-10.85-4.87-10.85-10.85v-1.47c0-5.98,4.87-10.85,10.85-10.85V152.89 M125.74,152.89c-6.52,0-11.85,5.33-11.85,11.85v1.47
		c0,6.52,5.33,11.85,11.85,11.85l113.03,0c6.52,0,11.85-5.33,11.85-11.85v-1.47c0-6.52-5.33-11.85-11.85-11.85L125.74,152.89
		L125.74,152.89z"/>
</g>
<g>
	<path d="M125.74,220.41c-6.26,0-11.35-5.09-11.35-11.35v-1.47c0-6.26,5.09-11.35,11.35-11.35h113.03c6.26,0,11.35,5.09,11.35,11.35
		v1.47c0,6.26-5.09,11.35-11.35,11.35L125.74,220.41z"/>
	<path d="M125.74,195.75v1l113.03,0c2.88,0,5.6,1.13,7.66,3.19c2.06,2.06,3.19,4.78,3.19,7.66v1.47c0,5.98-4.87,10.85-10.85,10.85
		l-113.03,0c-5.98,0-10.85-4.87-10.85-10.85v-1.47c0-5.98,4.87-10.85,10.85-10.85V195.75 M125.74,195.75
		c-6.52,0-11.85,5.33-11.85,11.85v1.47c0,6.52,5.33,11.85,11.85,11.85l113.03,0c6.52,0,11.85-5.33,11.85-11.85v-1.47
		c0-6.52-5.33-11.85-11.85-11.85L125.74,195.75L125.74,195.75z"/>
</g>
<g>
	<path d="M87.02,136.07c-7.41,0-13.44-6.03-13.44-13.44s6.03-13.44,13.44-13.44c7.41,0,13.44,6.03,13.44,13.44
		S94.43,136.07,87.02,136.07z"/>
	<path d="M87.02,109.68c7.14,0,12.94,5.81,12.94,12.94s-5.81,12.94-12.94,12.94c-7.14,0-12.94-5.81-12.94-12.94
		S79.88,109.68,87.02,109.68 M87.02,108.68c-7.7,0-13.94,6.24-13.94,13.94c0,7.7,6.24,13.94,13.94,13.94
		c7.7,0,13.94-6.24,13.94-13.94S94.72,108.68,87.02,108.68L87.02,108.68z"/>
</g>
<g>
	<path d="M87.02,178.92c-7.41,0-13.44-6.03-13.44-13.44c0-7.41,6.03-13.44,13.44-13.44c7.41,0,13.44,6.03,13.44,13.44
		S94.43,178.92,87.02,178.92z"/>
	<path d="M87.02,152.53c3.46,0,6.71,1.35,9.15,3.79c2.44,2.44,3.79,5.7,3.79,9.15c0,7.14-5.81,12.94-12.94,12.94
		c-7.14,0-12.94-5.81-12.94-12.94C74.07,158.34,79.88,152.53,87.02,152.53 M87.02,151.53c-7.7,0-13.94,6.24-13.94,13.94
		c0,7.7,6.24,13.94,13.94,13.94c7.7,0,13.94-6.24,13.94-13.94C100.96,157.77,94.72,151.53,87.02,151.53L87.02,151.53z"/>
</g>
<g>
	<path d="M87.02,221.77c-7.41,0-13.44-6.03-13.44-13.45c0-7.41,6.03-13.44,13.44-13.44c7.41,0,13.44,6.03,13.44,13.44
		C100.46,215.74,94.43,221.77,87.02,221.77z"/>
	<path d="M87.02,195.38c7.14,0,12.94,5.81,12.94,12.94c0,7.14-5.81,12.94-12.94,12.94s-12.94-5.81-12.94-12.94
		C74.07,201.19,79.88,195.38,87.02,195.38 M87.02,194.38c-7.7,0-13.94,6.24-13.94,13.94c0,7.7,6.24,13.94,13.94,13.94
		s13.94-6.24,13.94-13.94S94.72,194.38,87.02,194.38L87.02,194.38z"/>
</g>
<g>
	<path d="M165.25,313.37c-83.43,0-151.3-67.87-151.3-151.3s67.87-151.3,151.3-151.3c83.43,0,151.3,67.87,151.3,151.3
		C316.54,245.5,248.67,313.37,165.25,313.37z M165.25,33.45c-70.93,0-128.63,57.7-128.63,128.63c0,70.93,57.7,128.63,128.63,128.63
		c70.92,0,128.63-57.7,128.63-128.63C293.87,91.15,236.17,33.45,165.25,33.45z"/>
	<path d="M165.24,11.28c40.28,0,78.15,15.69,106.63,44.17c28.48,28.48,44.17,66.35,44.17,106.63c0,40.28-15.69,78.15-44.17,106.63
		s-66.35,44.17-106.63,44.17S87.1,297.19,58.61,268.7c-28.48-28.48-44.17-66.35-44.17-106.63c0-40.28,15.69-78.15,44.17-106.63
		C87.1,26.96,124.97,11.28,165.24,11.28 M165.24,291.2c34.49,0,66.92-13.43,91.31-37.82c24.39-24.39,37.82-56.82,37.82-91.31
		c0-71.2-57.93-129.13-129.13-129.13c-71.2,0-129.13,57.93-129.13,129.13S94.04,291.2,165.24,291.2 M165.24,10.28
		c-83.84,0-151.8,67.96-151.8,151.8c0,83.84,67.96,151.8,151.8,151.8c83.84,0,151.8-67.96,151.8-151.8
		C317.04,78.24,249.08,10.28,165.24,10.28L165.24,10.28z M165.24,290.2c-70.76,0-128.13-57.36-128.13-128.13
		S94.48,33.95,165.24,33.95c70.76,0,128.13,57.36,128.13,128.13C293.37,232.84,236.01,290.2,165.24,290.2L165.24,290.2z"/>
</g>
</svg>
