<?xml version="1.0" encoding="utf-8"?>
<!-- Generator: Adobe Illustrator 24.3.0, SVG Export Plug-In . SVG Version: 6.00 Build 0)  -->
<svg version="1.1" id="Layer_1" xmlns="http://www.w3.org/2000/svg" xmlns:xlink="http://www.w3.org/1999/xlink" x="0px" y="0px"
	 viewBox="0 0 320.68 325" style="enable-background:new 0 0 320.68 325;" xml:space="preserve">
<g>
	<path d="M161.78,15.78c-80.72,0-146.16,65.44-146.16,146.16S81.06,308.1,161.78,308.1s146.16-65.44,146.16-146.16
		S242.5,15.78,161.78,15.78z M241.54,232.39c0,8.34-6.82,15.16-15.16,15.16H97.19c-8.34,0-15.16-6.82-15.16-15.16v-2.88
		c0-8.34,6.82-15.16,15.16-15.16h129.18c8.34,0,15.16,6.82,15.16,15.16V232.39z M243.49,171.19c0,8.34-6.82,15.16-15.16,15.16H95.89
		c-8.34,0-15.16-6.82-15.16-15.16v-7.44c0-8.34,6.82-15.16,15.16-15.16h132.44c8.34,0,15.16,6.82,15.16,15.16V171.19z
		 M243.49,105.43c0,8.34-6.82,15.16-15.16,15.16H95.89c-8.34,0-15.16-6.82-15.16-15.16V98c0-8.34,6.82-15.16,15.16-15.16h132.44
		c8.34,0,15.16,6.82,15.16,15.16V105.43z"/>
</g>
</svg>
