<?xml version="1.0" encoding="utf-8"?>
<!-- Generator: Adobe Illustrator 24.3.0, SVG Export Plug-In . SVG Version: 6.00 Build 0)  -->
<svg version="1.1" id="Layer_1" xmlns="http://www.w3.org/2000/svg" xmlns:xlink="http://www.w3.org/1999/xlink" x="0px" y="0px"
	 viewBox="0 0 323 325" style="enable-background:new 0 0 323 325;" xml:space="preserve">
<path d="M159.89,11.89c-82.36,0.46-149.05,67.14-149.5,149.5c-0.46,82.84,68.36,151.66,151.2,151.2
	c82.36-0.46,149.05-67.14,149.5-149.5C311.55,80.25,242.73,11.43,159.89,11.89z M160.74,55.8c25.23,0,45.68,20.36,45.68,45.48
	s-20.45,45.48-45.68,45.48s-45.68-20.36-45.68-45.48S135.52,55.8,160.74,55.8z M250.64,223.4c0,0-36.11,47.17-94.33,46.43
	s-85.49-48.64-85.49-48.64c-1.47-2.95,24.32-54.54,102.44-44.96S250.64,223.4,250.64,223.4z"/>
</svg>
