<?xml version="1.0" encoding="utf-8"?>
<!-- Generator: Adobe Illustrator 24.3.0, SVG Export Plug-In . SVG Version: 6.00 Build 0)  -->
<svg version="1.1" id="Layer_1" xmlns="http://www.w3.org/2000/svg" xmlns:xlink="http://www.w3.org/1999/xlink" x="0px" y="0px"
	 viewBox="0 0 254 325" style="enable-background:new 0 0 254 325;" xml:space="preserve">
<path d="M14.73,73.41c0,0-2.84-25.56,24.14-26.27c26.98-0.71,40.64,0,40.64,0v-5.43c0-7.52,2.83-14.83,8.17-20.12
	c0.25-0.25,0.5-0.49,0.77-0.73c4.08-3.74,9.49-5.67,15.02-5.67h44.21c0,0,10.87,0,18.13,8.78c3.41,4.13,5.13,9.39,5.13,14.73v8.71
	l41.9-0.27c0,0,18.46,0,22.01,12.07s2.02,14.2,2.02,14.2H14.73z"/>
<path d="M26.81,89.74l13.19,220.13H209.3l15.26-220.13H26.81z M125.51,257.3c-36.85,0-66.72-29.87-66.72-66.72
	s29.87-66.72,66.72-66.72s66.72,29.87,66.72,66.72S162.36,257.3,125.51,257.3z"/>
<path d="M125.51,148.47c-23.25,0-42.1,18.85-42.1,42.1s18.85,42.1,42.1,42.1s42.1-18.85,42.1-42.1
	C167.61,167.32,148.76,148.47,125.51,148.47z M92.94,204.01v-27.32h64.6v27.32H92.94z"/>
</svg>
