<?xml version="1.0" encoding="utf-8"?>
<!-- Generator: Adobe Illustrator 24.3.0, SVG Export Plug-In . SVG Version: 6.00 Build 0)  -->
<svg version="1.1" id="Layer_1" xmlns="http://www.w3.org/2000/svg" xmlns:xlink="http://www.w3.org/1999/xlink" x="0px" y="0px"
	 viewBox="0 0 323.74 325" style="enable-background:new 0 0 323.74 325;" xml:space="preserve">
<path d="M305.87,267.85c-7.27-10.51-35.98-37.33-47.64-48.06c-2.32-2.13-4.52-4.38-6.71-6.65c-3.52-3.66-12.42-10.27-27.36-4.52
	l-9.19-9.7c0,0,55.66-64.85,2.55-141.45C166.48-16.16,68.72,20.15,54.87,34.87c-1.52,1.62-3.07,3.21-4.69,4.75
	c-12.11,11.49-51.35,54.27-36.23,114c7.97,31.47,28.96,58.24,57.47,73.77c29.05,15.83,73.22,25.73,124.66-10.08l9.19,9.7
	c0,0-6.64,12.77,4.6,24l48.76,49.23c1.5,1.51,2.95,3.07,4.41,4.62c0.2,0.22,0.43,0.46,0.69,0.71c8.09,7.93,21.12,7.73,29.25-0.16
	l10.42-10.12c3.5-3.4,5.87-7.85,6.43-12.69C310.31,278.39,309.61,273.24,305.87,267.85z M124.65,220.77
	c-53.84,0-97.48-41.93-97.48-93.65s43.64-93.65,97.48-93.65c53.84,0,97.48,41.93,97.48,93.65S178.48,220.77,124.65,220.77z"/>
<path d="M67.4,97.3c0,0-2.04,84.26,89.87,85.79c0,0-40.34,29.62-79.66-5.62S67.4,97.3,67.4,97.3z"/>
</svg>
