<?xml version="1.0" encoding="utf-8"?>
<!-- Generator: Adobe Illustrator 24.3.0, SVG Export Plug-In . SVG Version: 6.00 Build 0)  -->
<svg version="1.1" id="Layer_1" xmlns="http://www.w3.org/2000/svg" xmlns:xlink="http://www.w3.org/1999/xlink" x="0px" y="0px"
	 viewBox="0 0 329 325" style="enable-background:new 0 0 329 325;" xml:space="preserve">
<path d="M135.04,145.74l-16.8-43.56c-0.85-2.21-1.3-4.56-1.19-6.92c0.2-4.54,2.37-9.92,12.78-4.92
	c16.3,7.82,114.08,57.36,114.08,57.36l2.89,1.54c2.89,1.54,5.85,2.95,8.79,4.4c2.32,1.14,5.6,3.77,2.8,8.86
	c-0.73,1.33-1.88,2.37-3.23,3.06c-14.2,7.25-108.63,55.43-122.88,62.7c-1.98,1.01-4.13,1.7-6.34,1.94
	c-5.14,0.54-12.05-1.05-5.89-16.01l14.34-40.42l82.18-13.97L135.04,145.74z"/>
<path d="M160.88,13.58C80.26,13.58,14.9,78.94,14.9,159.56c0,80.62,65.36,145.98,145.98,145.98s145.98-65.36,145.98-145.98
	C306.86,78.94,241.5,13.58,160.88,13.58z M160.88,280.2c-66.63,0-120.64-54.01-120.64-120.64S94.26,38.92,160.88,38.92
	s120.64,54.01,120.64,120.64S227.51,280.2,160.88,280.2z"/>
</svg>
