<?xml version="1.0" encoding="utf-8"?>
<!-- Generator: Adobe Illustrator 24.3.0, SVG Export Plug-In . SVG Version: 6.00 Build 0)  -->
<svg version="1.1" id="Layer_1" xmlns="http://www.w3.org/2000/svg" xmlns:xlink="http://www.w3.org/1999/xlink" x="0px" y="0px"
	 viewBox="0 0 324.77 325" style="enable-background:new 0 0 324.77 325;" xml:space="preserve">
<style type="text/css">
	.st0{stroke:#000000;stroke-miterlimit:10;}
</style>
<path class="st0" d="M162.22,13.26c-82.29,0-149,65.94-149,147.28s66.71,147.28,149,147.28s149-65.94,149-147.28
	S244.51,13.26,162.22,13.26z M162.22,285.25c-69.68,0-126.16-55.83-126.16-124.71S92.55,35.84,162.22,35.84
	s126.16,55.83,126.16,124.71S231.9,285.25,162.22,285.25z"/>
<g>
	<circle class="st0" cx="124.67" cy="111.63" r="29.4"/>
	<circle class="st0" cx="217.98" cy="147.33" r="29.4"/>
	<circle class="st0" cx="130.99" cy="209.84" r="29.4"/>
	<polygon class="st0" points="153.64,116.67 197.7,132.47 194.97,141.03 142.36,127.01 	"/>
	<polygon class="st0" points="145.78,189.86 197.7,160.56 206.24,169.71 154.07,207.63 	"/>
</g>
</svg>
