<?xml version="1.0" encoding="utf-8"?>
<!-- Generator: Adobe Illustrator 24.3.0, SVG Export Plug-In . SVG Version: 6.00 Build 0)  -->
<svg version="1.1" id="Layer_1" xmlns="http://www.w3.org/2000/svg" xmlns:xlink="http://www.w3.org/1999/xlink" x="0px" y="0px"
	 viewBox="0 0 326 325" style="enable-background:new 0 0 326 325;" xml:space="preserve">
<g>
	<rect x="78.83" y="80.37" width="7.03" height="159.65"/>
	<rect x="78.83" y="232.99" width="172.47" height="7.03"/>
	<path d="M99.1,219.34V87.03c0,0,0.19-6.66,6.3-6.66h18.42c1.62,0,3.22,0.42,4.58,1.29c1.69,1.09,3.37,3.05,3.37,6.57v131.11H99.1z"
		/>
	<path d="M217.8,219.34v-12c0-3.38,2.73-6.13,6.12-6.14c0.06,0,0.12,0,0.18,0h18.42c1.62,0,3.22,0.05,4.58,0.17
		c1.69,0.14,3.37,1.8,3.37,2.26v15.72H217.8z"/>
	<path d="M139.22,219.34v-94.56c0,0,0.19-4.76,6.3-4.76h18.42c1.62,0,3.22,0.3,4.58,0.92c1.69,0.78,3.37,2.18,3.37,4.69v93.71
		H139.22z"/>
	<path d="M178.51,219.34V166.4c0-3.39,2.72-6.17,6.12-6.2c0.06,0,0.12,0,0.18,0h18.42c1.62,0,3.22,0.18,4.58,0.55
		c1.69,0.46,3.37,1.3,3.37,2.79v55.8H178.51z"/>
</g>
<path d="M163.3,13.59c-82.44,0-149.27,66.83-149.27,149.27S80.86,312.12,163.3,312.12s149.27-66.83,149.27-149.27
	S245.73,13.59,163.3,13.59z M163.3,289.49c-69.94,0-126.63-56.7-126.63-126.63c0-69.94,56.7-126.63,126.63-126.63
	s126.63,56.7,126.63,126.63C289.93,232.79,233.23,289.49,163.3,289.49z"/>
</svg>
