<?xml version="1.0" encoding="utf-8"?>
<!-- Generator: Adobe Illustrator 24.3.0, SVG Export Plug-In . SVG Version: 6.00 Build 0)  -->
<svg version="1.1" id="Layer_1" xmlns="http://www.w3.org/2000/svg" xmlns:xlink="http://www.w3.org/1999/xlink" x="0px" y="0px"
	 viewBox="0 0 376 262" style="enable-background:new 0 0 376 262;" xml:space="preserve">
<g>
	<path d="M357.33,52.19c-8.13-6.1-9.36,0-9.36,0L304.86,101l-9.36-8.13c0,0-4.9-3.92-12.35,1.41c-1.39,0.99-2.63,2.18-3.75,3.47
		l-62.93,72.45c1.02,1.67,2.21,4.63,2.29,9.44c0.14,8.52,0,27.87,0,27.87s2.45-0.03,5.58,0.48c-0.14-0.05-0.22-0.08-0.22-0.08
		l0.02-25.58l64.34-74.34l23.89,20.71l-75.45,87.12c0.33,0.93,0.53,1.97,0.53,3.13c0.05,11.7,3.26,15.97-5.78,16.23
		c-7.31,0.21-28.18,0.08-35.87,0.02c7.37,6.44,14.31,12.24,14.31,12.24s11.79,8.95,21.96-6.1s89.68-102.49,89.68-102.49
		s12.81-10.98,3.87-20.34c-6.36-6.64-8.4-7.13-9.05-6.86l40.78-47.24C357.33,64.4,365.45,58.3,357.33,52.19z"/>
	<g>
		<path d="M205.05,51.43l-15.92-2.19l-5.97-12.52c0,0-3.36-4.47-7.26,0l-6.14,12.52l-14.3,2.24c0,0-4.47,2.24-1.34,6.7l9.38,9.83
			l-2.12,13.31c0,0,1.23,6.35,6.14,4.12s12.52-5.94,12.52-5.94l10.28,5.5c0,0,7.6,3.57,7.15-4.92l-1.25-12.5l8.85-8.51
			C205.05,59.08,208.18,56.74,205.05,51.43z M186.28,64.89l0.87,8.49c0,0-5.34-4.02-7.12-3.69c-1.79,0.33-8.04,3.69-8.04,3.69
			l0.45-7.6l-5.81-7.6l9.38-1.34l4.02-7.39l3.13,7.84l9.38,1.34L186.28,64.89z"/>
		<path d="M162.15,165.24V147.1c0-1.88,0.1-3.76,0.15-5.64c0.04-1.42-0.73-4.87-6.86-11.33c-5.61-5.9-11.73-11.2-18.43-22.11
			c-8.02-13.08-12.83-27.88-14.33-43.15c-1.05-10.63-1.69-25.51-0.8-45.15c0.02-0.4,0.03-0.8,0.04-1.19
			c0.03-1.29,0.58-5.93,6.72-5.93h97.28c1.8,0,3.59-0.12,5.39-0.25c2.09-0.16,5.96,0.56,6.7,7.72c0.05,0.46,0.08,0.96,0.1,1.47
			c0.45,11.62,0,42.33,0,42.33s0,29.62-23.69,55.99l-5.41,6.03c-2.13,2.37-4.4,4.62-6.65,6.88c-1.68,1.69-4.48,6.66-4.48,21.05
			l-0.07,11.45c-0.02,2.56-2.1,4.64-4.67,4.64h-0.3c-2.57,0-4.66-2.08-4.67-4.65l-0.12-23.51c0,0-0.45-10.28,8.49-16.09
			s20.78-20.95,27.6-39.74c5.51-15.18,5.4-48.12,5.16-60.24c-0.05-2.55-2.14-4.58-4.69-4.57l-89.64,0.41
			c-2.09,0.01-3.82,1.62-3.97,3.71c-0.95,13.38-2.8,59.58,14.36,79.96c2.19,2.6,4.23,5.34,6.22,8.1c2.87,4.01,7.5,9.6,13.35,13.71
			c7.98,5.61,7.23,28.83,6.54,38.57c-0.18,2.44-2.21,4.33-4.66,4.33l0,0C164.24,169.91,162.15,167.82,162.15,165.24z"/>
		<path d="M238.12,21.53l0.2,8.1h17.67c0,0,9.39-1.4,9.39,7.54s1.09,49.21-39.45,66.84l-9.45,13.48c0,0,42.38-7.26,55.25-56.08
			c0,0,2.65-13.91,2.39-26.67s-13.69-13.21-13.69-13.21L238.12,21.53L238.12,21.53z"/>
		<path d="M121.81,21.53l-0.07,1.86l-0.27,6.93h-21.22c0,0-6.47-1.64-5.57,7.75c0.89,9.38-2.52,48.95,40.08,66.04l8.94,13.38
			c0,0-53.49-9.71-57.96-73.61V33.4c0,0,1.2-10.97,11.77-11.87C108.08,20.64,121.81,21.53,121.81,21.53z"/>
		<path d="M139.8,209.24h9.04l-0.11-29.94c0,0,0.46-5.97,4.25-6.11c3.79-0.14,53.45,0,53.45,0s4.86-1.04,4.86,9.24
			c0,10.28,0,26.82,0,26.82h9.08l-0.14-31.73c0,0-0.35-12.96-13.81-12.96s-53.45,0-53.45,0s-12.74-0.5-13.19,16.51
			S139.8,209.24,139.8,209.24z"/>
		<path d="M197.9,193.59h-16.54c-2.46,0-4.47-2.01-4.47-4.47l0,0c0-2.46,2.01-4.47,4.47-4.47h16.54c2.46,0,4.47,2.01,4.47,4.47l0,0
			C202.37,191.58,200.36,193.59,197.9,193.59z"/>
		<circle cx="162.6" cy="189.12" r="4.92"/>
		<path d="M239.22,220.43c0,0-1.09-11.65-13.6-12.54c-12.52-0.89-91.04,0-91.04,0s-11.29,1.48-11.29,14.37c0,6.58,0,8.99,0,9.76
			c0,0,0,3.13,5.36,3.13c5.36,0,104.52,0,104.52,0s5.82,0.43,6.06-5.82C239.47,223.09,239.22,220.43,239.22,220.43z M230.18,225.77
			H132.2c-1.34-7.6,4.18-8.94,4.18-8.94s82.52-0.89,88.77,0C231.42,217.73,230.18,225.77,230.18,225.77z"/>
	</g>
	<path d="M71.75,139.95c-29.63,0-53.66,24.34-53.66,54.37s24.03,54.36,53.66,54.36c29.64,0,53.66-24.34,53.66-54.36
		S101.39,139.95,71.75,139.95z M93.49,151.51l-5.31,2.65l-19.65-3.19l-4.25-4.25C84.46,144.08,93.49,151.51,93.49,151.51z
		 M68.43,154.17l19.75,2.65l1.59,17.52l-7.96,7.96l-17.04-3.09L61.1,168.5L68.43,154.17z M58.53,169.91l3.63,10.81l-7.96,15.4
		l-10.09,0.53l-11.68-11.68l9.57-16.73L58.53,169.91z M38.8,159.48l1.06,7.43l-9.03,16.46l-5.84,3.19
		C24.99,186.56,26.05,171.16,38.8,159.48z M29.24,215.23h6.65l14.06,14.87l0.53,6.9C50.48,237,35.08,228.51,29.24,215.23z
		 M66.41,220.54l-15.4,7.96l-13.27-14.34l7.43-14.87l9.56-1.06l12.21,12.74L66.41,220.54z M69.11,221.33l0.48-9.81l15.93-7.96
		l10.29,3.95l1.92,16.87l-17.52,8.92L69.11,221.33z M78.89,241.72l2.56-6.56c6.01-1.31,18.41-8.78,18.41-8.78l6.37,1.06
		C97.21,240.19,78.89,241.72,78.89,241.72z M96.14,205.14l-9.56-3.72l-2.65-16.99l8.5-8.5l16.46,2.12l2.65,19.65L96.14,205.14z
		 M114.73,197.8l-3.19-20.34l3.19-5.24c7.96,12.21,4.78,30.27,4.78,30.27L114.73,197.8z"/>
</g>
<path d="M330.22,190.54c-0.8-6.8-5.28-7.87-7.96-7.89c-1.68-0.01-3.35-0.06-5.02-0.21c-6.72-0.62-23.63-0.49-38.87,13.2
	c-19.57,17.57-16.55,44.02-16.55,44.02c1.19,9.56,5.52,10.63,7.61,10.57c1.14-0.03,2.28-0.06,3.42-0.02
	c6.83,0.27,27.52-0.16,41.53-13.73C331.38,220.01,331.38,200.36,330.22,190.54z M284.22,245.17l-8.6,0.86c0,0-7.43,0.53-9.03-3.72
	c-1.25-3.34,0.12-11.6,0.76-14.98c0.15-0.81,1.02-1.28,1.78-0.96c7.07,2.99,13.59,12.78,16.06,16.82
	C285.7,244.02,285.17,245.07,284.22,245.17z M308.76,218.55l-1.48,1.48c-0.52,0.52-1.36,0.52-1.87-0.01l-3.18-3.25l-2.99,2.99
	l3.16,3.24c0.52,0.54,0.52,1.4-0.01,1.93l-1.48,1.48c-0.52,0.52-1.36,0.52-1.87-0.01l-3.18-3.26l-2.73,2.73l2.9,2.97
	c0.52,0.54,0.52,1.4-0.01,1.93l-1.48,1.48c-0.52,0.52-1.36,0.52-1.87-0.01l-2.95-3.02c-1.17,0.7-3.55-0.48-4.52-1.47l0,0
	c-0.93-0.94-1.02-2.41-0.29-3.45l-3.35-3.42c-0.52-0.54-0.52-1.41,0.01-1.93l1.48-1.48c0.52-0.52,1.36-0.52,1.87,0.01l3.35,3.43
	l2.75-2.71l-3.09-3.16c-0.52-0.54-0.52-1.4,0.01-1.93l1.48-1.48c0.52-0.52,1.36-0.52,1.87,0.01l3.13,3.2l3.01-2.97l-3.13-3.2
	c-0.52-0.54-0.52-1.4,0.01-1.93l1.48-1.48c0.52-0.52,1.36-0.52,1.87,0.01l3.16,3.24l2.25-2.22c0.72-0.71,1.97-0.8,2.78-0.19
	l0.72,0.54c1.05,1.06,1.95,3.84,0.89,4.89l-1.87,1.87l3.16,3.24C309.3,217.16,309.29,218.02,308.76,218.55z M325.53,191.34
	l-0.78,10.82c-0.18,2.49-2.98,3.84-5.04,2.44c-3.57-2.42-7.53-7.03-10.29-10.57c-1.59-2.04-0.25-5.04,2.33-5.21l9.91-0.66
	c0.1-0.01,0.2-0.01,0.29-0.01C326.05,188.22,325.53,191.34,325.53,191.34z"/>
</svg>
