<?xml version="1.0" encoding="utf-8"?>
<!-- Generator: Adobe Illustrator 24.3.0, SVG Export Plug-In . SVG Version: 6.00 Build 0)  -->
<svg version="1.1" id="Layer_1" xmlns="http://www.w3.org/2000/svg" xmlns:xlink="http://www.w3.org/1999/xlink" x="0px" y="0px"
	 viewBox="0 0 376 287" style="enable-background:new 0 0 376 287;" xml:space="preserve">
<g>
	<rect x="63.07" y="199.84" width="254.95" height="12.57"/>
	<rect x="91.01" y="154.94" width="20.46" height="36.92"/>
	<rect x="135.91" y="144.46" width="21.95" height="47.4"/>
	<rect x="181.81" y="122.51" width="22.95" height="69.35"/>
	<rect x="228.71" y="92.08" width="24.95" height="99.78"/>
	<rect x="275.61" y="37.19" width="25.94" height="154.66"/>
</g>
<path d="M94.59,110.32v24.42l33.91-46.61l30.36,28.04c1.42,1.31,3.17,2.23,5.08,2.5c1.68,0.24,3.62,0.03,5.13-1.49
	c3.37-3.39,52.2-73.72,52.2-73.72l1.68,22.88c0,0,0.7,10.85,8.35,9.66c6.16-0.96,6.27-8.84,6.07-11.87
	c-0.09-1.5-0.19-2.99-0.26-4.49l-1.54-34.82c0,0,0.56-3.92-3.75-6.29c-1.77-0.98-3.82-1.33-5.84-1.17l-35.43,2.85
	c-1.97,0.16-3.95,0.19-5.92,0.26c-1.88,0.07-5.36,1.14-7.14,7.74c-2.53,9.32,32.41,5.28,32.41,5.28l-46.72,65.89l-28.62-27.96
	c0,0-6.74-7.63-12.63,0.85L94.59,110.32z"/>
<path d="M335.76,18.08v215.47c0,6.06-4.96,11.02-11.02,11.02H53.29c-6.06,0-11.02-4.96-11.02-11.02v-33.56H14.77l-0.24,61.74
	c0,6.06,4.96,11.02,11.02,11.02h329.89c6.06,0,11.02-4.96,11.02-11.02l-0.24-243.79L335.76,18.08z"/>
</svg>
