<?xml version="1.0" encoding="utf-8"?>
<!-- Generator: Adobe Illustrator 24.3.0, SVG Export Plug-In . SVG Version: 6.00 Build 0)  -->
<svg version="1.1" id="Layer_1" xmlns="http://www.w3.org/2000/svg" xmlns:xlink="http://www.w3.org/1999/xlink" x="0px" y="0px"
	 viewBox="0 0 334 325" style="enable-background:new 0 0 334 325;" xml:space="preserve">
<path d="M167.12,10.95c-83.5,0-151.19,67.69-151.19,151.19s67.69,151.19,151.19,151.19S318.3,245.63,318.3,162.14
	S250.61,10.95,167.12,10.95z M164.59,288.27c-69.66,0-126.14-56.47-126.14-126.14S94.92,36,164.59,36s126.14,56.47,126.14,126.14
	S234.25,288.27,164.59,288.27z"/>
<polygon points="86.41,89.57 86.41,130.1 143.68,130.1 143.68,179.63 185.16,179.63 185.16,131.31 242.59,131.31 242.59,89.57 "/>
<path d="M165.13,151.81c-55.31,0-100.15,10.84-100.15,24.22c0,13.37,44.84,24.22,100.15,24.22s100.15-10.84,100.15-24.22
	C265.28,162.65,220.44,151.81,165.13,151.81z M165.13,188.3c-49.51,0-89.65-7.23-89.65-16.14c0-8.92,40.14-16.14,89.65-16.14
	s89.65,7.23,89.65,16.14C254.78,181.07,214.64,188.3,165.13,188.3z"/>
<path d="M144.25,194.55v70.71h41.65v-71.23C185.9,194.03,162.88,196.48,144.25,194.55z"/>
</svg>
