<?xml version="1.0" encoding="utf-8"?>
<!-- Generator: Adobe Illustrator 24.3.0, SVG Export Plug-In . SVG Version: 6.00 Build 0)  -->
<svg version="1.1" id="Layer_1" xmlns="http://www.w3.org/2000/svg" xmlns:xlink="http://www.w3.org/1999/xlink" x="0px" y="0px"
	 viewBox="0 0 327.83 325" style="enable-background:new 0 0 327.83 325;" xml:space="preserve">
<style type="text/css">
	.st0{stroke:#000000;stroke-miterlimit:10;}
</style>
<g>
	<path d="M161.11,167.97c-29.91,0-54.24-24.33-54.24-54.24s24.33-54.24,54.24-54.24c29.91,0,54.24,24.33,54.24,54.24
		S191.02,167.97,161.11,167.97z M161.11,67.95c-25.24,0-45.77,20.53-45.77,45.77s20.53,45.77,45.77,45.77
		c25.24,0,45.77-20.53,45.77-45.77S186.34,67.95,161.11,67.95z"/>
	<path d="M161.11,59.98c29.63,0,53.74,24.11,53.74,53.74s-24.11,53.74-53.74,53.74c-29.63,0-53.74-24.11-53.74-53.74
		S131.47,59.98,161.11,59.98 M161.11,159.99c25.51,0,46.27-20.76,46.27-46.27c0-25.51-20.76-46.27-46.27-46.27
		c-25.51,0-46.27,20.76-46.27,46.27C114.84,139.24,135.6,159.99,161.11,159.99 M161.11,58.98c-30.23,0-54.74,24.51-54.74,54.74
		s24.51,54.74,54.74,54.74c30.23,0,54.74-24.51,54.74-54.74S191.34,58.98,161.11,58.98L161.11,58.98z M161.11,158.99
		c-25,0-45.27-20.27-45.27-45.27s20.27-45.27,45.27-45.27c25,0,45.27,20.27,45.27,45.27S186.11,158.99,161.11,158.99L161.11,158.99z
		"/>
</g>
<path class="st0" d="M71.98,231.63c0,0,14.04-54.74,89.13-54.74s88.43,54.74,88.43,54.74h-18.95c0,0-6.9-39.39-69.48-37.9
	s-70.18,37.9-70.18,37.9H71.98z"/>
<path class="st0" d="M164.27,11.96c-83.14,0-150.54,67.4-150.54,150.54s67.4,150.54,150.54,150.54s150.54-67.4,150.54-150.54
	S247.41,11.96,164.27,11.96z M164.27,290.58c-70.74,0-128.08-57.35-128.08-128.08S93.53,34.42,164.27,34.42
	S292.35,91.76,292.35,162.5S235,290.58,164.27,290.58z"/>
</svg>
